<?xml version="1.0" encoding="utf-8"?>
<!-- Generator: Adobe Illustrator 22.1.0, SVG Export Plug-In . SVG Version: 6.00 Build 0)  -->
<svg version="1.1" id="Layer_1" xmlns="http://www.w3.org/2000/svg" xmlns:xlink="http://www.w3.org/1999/xlink" x="0px" y="0px"
	 viewBox="0 0 900 1137" style="enable-background:new 0 0 900 1137;" xml:space="preserve">
<style type="text/css">
	.st0{fill:rgba(252,179,168,1.00);}
</style>
<path class="st0" d="M428.3,1.2c0.1,0.8-1.9,1.6-5.3,2.3c-3,0.6-8,2.2-11,3.7c-9.4,4.6-11.1,4.9-25.5,5.4
	c-18.2,0.6-32.7,3.6-44.3,9.1c-3.6,1.8-8.2,2.8-14.5,3.5c-5,0.5-10.8,1.3-12.7,1.8c-1.9,0.6-4.5,1-5.8,1c-3.5,0-9.7,4.4-12.9,9.2
	c-1.7,2.6-4.1,4.7-5.9,5.3c-4.6,1.5-6.4,3.4-6.4,6.6c0,3.1-2.3,4.1-3.4,1.4c-0.3-0.8-1.4-1.5-2.4-1.5c-1.1,0-2.5,0.7-3.2,1.5
	c-1.6,2-6,1.9-8.8-0.1c-1.7-1.2-3.9-1.5-8.5-1.2c-8.9,0.6-15.2,3.2-24.2,9.9c-2.7,2-7.3,4.9-10.2,6.4c-4.6,2.4-5.6,3.4-8.8,10
	c-4.1,8.5-8.2,12.9-21.5,23.6c-5.2,4.2-10.3,8.6-11.4,9.7c-1,1.2-3.8,3.1-6.2,4.3c-5.1,2.4-12.4,10.2-15.2,16.2
	c-1.9,4-5.1,11.1-9.2,20.2c-2,4.5-1.9,4.3-6.7,17.5c-5.8,16-5.3,22,1,12.9c3.9-5.4,27.9-33.3,33.6-39c2.5-2.5,7.5-6.7,11.1-9.4
	s7.1-5.5,7.9-6.3c1.3-1.2,11.8-8.6,15.3-10.7c5.2-3.2,15-7.9,19.8-9.6c6.1-2.1,19.7-2.6,26.5-0.8c2.2,0.6,5.8,1.4,8,1.8
	c5.8,1.1,9.7,3.8,13.9,9.5c3.6,4.7,11.6,20.4,11.6,22.6c0,0.5,0.6,2.4,1.4,4.2s2.8,6.9,4.6,11.3c1.8,4.4,3.8,9.5,4.6,11.3
	c0.8,1.8,1.4,5,1.4,7.1c0,3.3,1.6,8,7.6,21.6c3.3,7.7,5.2,11.4,8.5,16.5c4.8,7.6,7.5,13,8.4,16.8c0.3,1.8,2.1,5.4,3.9,8
	s3.6,5.9,4,7.2c0.4,1.4,1.3,3.8,2.1,5.5c0.7,1.6,2.1,6.1,2.9,9.8c1,4.4,2.6,8.2,4.6,10.7c3.4,4.3,3.6,5.6,1.5,12.4
	c-2,6.5-2,13.5,0,14.2c0.8,0.4,1.5,1.2,1.5,2c0,1.9-12.6,1.9-22.7-0.1c-17-3.4-23-4.7-27.9-6.1c-2.8-0.8-5.8-1.4-6.7-1.4
	c-1,0-3.4-0.9-5.4-2c-2.1-1.1-5.2-2-7-2c-2.3,0-3.7-0.7-4.9-2.4c-1.4-2.2-2-2.4-6.4-1.9c-4.2,0.5-4.9,0.3-6-1.6
	c-0.9-1.8-1.7-2.1-4-1.6c-1.6,0.3-6.6-0.3-11.5-1.4c-6.4-1.6-12-2.1-21.5-2.1c-13,0-14.8,0.4-23.3,4.6c-1.6,0.8-3.9,1.4-5.1,1.4
	c-7,0-30.5,17.1-34.7,25.3c-1.1,2.1-3.2,4.3-4.7,4.9c-1.5,0.5-8.5,1.4-15.6,1.9c-12.5,0.8-13,0.9-16,3.8c-1.8,1.7-3.7,3.1-4.4,3.1
	c-0.7,0-1.2,0.4-1.2,0.9c0,1.5-4.1,2.4-5.3,1.2c-0.7-0.7-0.5-1.2,0.9-1.7c6.5-2.4,7.3-7.8,1.6-12.1c-5.4-4.1-12.4-7.9-17.4-9.6
	c-3.6-1.2-2.9,1.7,1.6,6.2c2.5,2.6,4.6,5.4,4.6,6.4c0,2.2-0.6,2.1-3.8-0.1c-8.6-5.9-10.9-6.5-26.2-6.6c-15.8-0.1-16.4,0-25.5,6.9
	c-10.7,8-15.7,19-17.5,38.2c-0.5,5.4-1.4,13.4-2,17.8c-2,14.7,2.5,43.7,11.1,70.5c3.4,10.5,11.9,27.1,15.5,30.1
	c2.2,1.8,5.4-0.3,8.3-5.4c6.1-10.8,13.6-20.8,20.5-26.9c7.9-7.2,20.7-21.8,25-28.7c1.5-2.3,6.3-8.5,10.8-13.9
	c13-15.4,18.9-25.5,20.2-34.3c0.4-2.7,1.5-5.4,2.6-6.4c1.9-1.7,2-1.7,3.6,2c0.8,2,1.9,8.5,2.4,14.4c0.5,5.8,1.4,13.3,2,16.6
	c0.5,3.3,1,7.8,1,9.9c0,4.5,2.5,15.6,4.5,20.1c0.7,1.6,2.1,5,3,7.5c7.7,20,15.9,33.4,27.1,44.2c7.9,7.6,13.3,11.3,25.4,17.3l6.6,3.4
	l28.1,0.2c23.5,0.1,28.5-0.1,30.9-1.4c1.6-0.8,4.8-2.3,7-3.2c3.1-1.2,5.4-3.4,8.9-8.3c2.7-3.7,5.7-7.4,6.8-8.3c2-1.6,2-1.8,0.3-7.5
	c-0.9-3.3-2.1-7.3-2.7-8.9c-0.6-1.7-1.4-4.5-1.9-6.3c-0.5-1.9-1.6-4.2-2.6-5.3c-1.6-1.7-1.9-1.8-3.5-0.3c-2.3,2-3.4,0.2-1.7-2.8
	c2-3.7,3.8-9.1,3.8-11.8c0-1.4,0.9-4.5,2-6.9s2-5.1,2-6.1s0.7-2.3,1.5-3c1.1-0.9,1.5-3.3,1.5-8.4c0-8.6,0.8-10.1,4.6-9.2
	c9.2,2.2,15,2.7,24.7,2.2c11.2-0.6,15.3-1.9,19.3-6.1c3-3.2,16.2-4.4,21.9-2.1c6.1,2.6,7.6,4.4,7.4,9c-0.1,2.3,0.1,4.8,0.5,5.8
	c0.5,1.1-0.4,2.9-3,5.8l-3.7,4.1l1.6,3.5c2,4.1,2.2,9.6,0.5,12.5c-1.1,1.7-1,2.2,0.5,3c2.4,1.4,6.3,7.7,7.2,11.7
	c0.5,2.3,0.2,4-0.9,5.7c-1.5,2.3-1.5,2.8,0.5,6.7c1.7,3.3,1.9,4.6,1,6c-0.6,1-1.1,3.4-1.1,5.3c0,3.5-3,10.8-5,12
	c-0.5,0.3-1,1.5-1,2.6c0,1.4,0.7,1.9,2.5,1.9c3.7,0,4,2.2,0.8,7.1c-1.5,2.4-3.4,5.3-4.1,6.4s-2.2,3.4-3.3,5.2
	c-1.1,1.8-2.9,3.5-4,3.8c-1.5,0.5-1.8,1.2-1.3,2.3c1.5,3.4,0.5,6.5-4.1,12.3c-3.7,4.8-4.6,6.6-4.3,8.9c0.5,3.2-0.7,4.2-3.4,2.9
	c-1-0.6-1.9-0.5-2.4,0.2c-0.4,0.7-2.6,0.8-6.3,0.4c-5.4-0.6-5.8-0.5-10.3,2.9c-3.8,2.9-5.5,3.6-9.3,3.6c-2.5,0-5.8-0.6-7.3-1.4
	c-5.1-2.5-7.8-2.7-10.2-0.6c-1.3,1.1-3.5,2.3-4.9,2.6c-8.3,1.9-10.9,2.9-14.3,5.6c-3.2,2.5-4.3,2.8-7.3,2.2
	c-3.2-0.6-4.1-0.3-6.9,2.6l-3.4,3.2l-10.5-0.8c-12.1-0.8-12.3-0.6-13.4,8.5c-0.5,4.2-0.3,5,1.4,5.9c1.1,0.6,2.5,0.7,3.3,0.2
	c1.7-1,3-0.4,3,1.4c0,1.6,7.4,12.9,9.3,14.3c0.6,0.5,3.2,1.7,5.7,2.7c2.5,1.1,7.3,3.2,10.7,4.8c8.6,4.1,13.6,4.7,17.3,1.9
	c1.6-1.1,3.3-2.1,3.9-2.1c0.5,0,2.7,2,4.8,4.3c5.9,6.8,11.7,9.1,16.4,6.7c3.6-2,1.3-5.8-2.6-4.4c-2.6,1-2.9-2.4-0.4-4.6
	c1.3-1,2.9-2,3.4-2c0.6,0,2.6-0.5,4.7-1c2.7-0.8,3.9-1.8,4.7-4c0.9-2.7,1.3-2.9,4.1-2.4c2.1,0.5,3.6,0.2,4.8-0.9
	c1.6-1.4,2-1.3,4.9,2.2c4.4,5.2,5.4,9.6,3.5,14.5c-1.5,3.7-1.4,4.1,0.8,8.3c2.1,3.9,2.2,4.6,0.9,6.9c-1.2,2.3-1.1,2.7,0.4,3.5
	c1.7,1,2.4,5.9,0.9,5.9c-0.5,0-2.3,1.9-4,4.2c-1.7,2.4-5.3,6.6-7.9,9.4c-10.2,10.7-11.3,12.3-11.3,16c0,4.8-3.5,10.8-7.9,13.8
	c-4.9,3.3-16.6,7.8-19.4,7.4c-1.6-0.2-2.3-1.1-2.5-3.1c-0.3-2.3-0.8-2.7-3.5-2.7c-1.8,0-4.2,0.7-5.4,1.5c-2.2,1.5-5.3,1.1-5.3-0.7
	c0-2.1,2.2-4.9,5.1-6.3c2.6-1.4,3-2.1,2.7-5.3c-0.2-3-0.7-3.8-2.7-4c-1.4-0.2-3.5-1.1-4.7-1.9c-2.9-1.8-4.8-0.9-3.4,1.7
	c1.1,2.1-0.4,3-4.8,3c-3.6,0-4.9,1-5.7,4c-0.9,3.9,1,7.8,4.2,8.6c5.1,1.1,8.2,2.8,8.7,4.8c0.7,2.6-0.1,3.6-2.8,3.6
	c-1.2,0-3.3,1.1-4.6,2.5c-2,2.1-2.2,2.9-1.2,4.3c3.5,5.1,4.1,6.9,2.8,8.7c-1.1,1.6-1.8,1.6-4.6,0.7c-4.5-1.6-7.5-1.5-9.1,0.4
	c-1,1.2-2.5,1.4-7.3,0.9c-5.9-0.7-6.3-0.6-12.2,3.4c-3.3,2.2-8,5.7-10.5,7.8c-10.8,9.4-17,13.3-21.2,13.3c-1.3,0-4,1.3-5.8,3
	c-1.9,1.6-6.3,4.6-9.9,6.5c-3.6,2-8,4.5-9.8,5.7c-3,1.9-3.9,1.9-10.4,1c-5.8-0.9-7.8-0.8-10.3,0.3c-1.6,0.8-5.2,1.7-8,2.1
	c-6.6,0.8-12.5,4.4-14.9,8.8c-1,2-3,4.3-4.2,5.1c-3.1,2-3,3.6,0.2,7.5c2.8,3.3,11.1,8,14.1,8c1,0,2.9,0.7,4.2,1.6
	c2.2,1.6,2.3,2.1,1.7,8.3c-0.3,3.6-0.9,7.7-1.2,8.9c-0.6,2.1-0.4,2.3,1.7,2c2.1-0.3,2.7-1.3,4.4-8.4c1.2-4.5,2.7-8.9,3.4-9.8
	c1.8-2.2,7.4-2,9.4,0.2c2.2,2.4,2.1,4.7-0.3,10.1c-1.1,2.4-2,5.9-2,7.8c0,3.3-1.8,13-4.1,22.3c-0.7,2.5-1.5,6.3-1.9,8.5
	c-0.9,4.8-5.9,23-9.6,34.8c-2.1,7-2.9,13.6-1.6,14.9c1.3,1.3,3.9-4.1,7.1-14.2c1.1-3.6,3-9,4.1-12c1.2-3,3.1-8.2,4.2-11.5
	c1.2-3.3,2.7-6.9,3.5-8c0.7-1.1,1.3-3.3,1.3-5c0-3.5,2.4-7.5,4.6-7.5c0.8,0,1.4,0.1,1.4,0.2c0,2.5-4.5,21.9-6,26.3
	c-1.2,3.3-2.5,7.4-2.9,9.1c-0.5,1.8-2,6.3-3.4,10c-1.3,3.8-3.3,9.4-4.2,12.4c-1,3-2.4,6.4-3.2,7.5c-0.8,1.2-1.3,4.8-1.3,9.3
	c0,5.8-0.5,8.3-2.5,12.3c-1.4,2.7-3.3,5.7-4.3,6.7c-2.2,2.2-7.4,14.1-6.6,15.3c0.3,0.5,1.4,0.9,2.4,0.9c2.9,0,3.4,1.8,1.4,4.8
	c-1,1.5-2.7,4.3-3.8,6.2c-2.6,4.8-7,10.4-13.7,17.4c-3.2,3.2-6.5,7.6-7.6,9.7c-2.4,4.9-4.4,6-11.4,6.3l-5.9,0.3l-12.2,11.9
	c-14,13.5-20.5,17.5-30.1,18.2c-7.2,0.6-9.4-0.9-5.8-3.9c1.3-1,3.4-1.9,4.7-1.9c3.9,0,10.1-4.6,13-9.5c1.4-2.5,3.9-5.2,5.5-6.1
	c3.2-1.6,7.5-6,11.2-11.5c2.8-4.1,11.7-22.2,11.7-23.8s7.2-6.1,9.8-6.1c2.9,0,6.7-4,9.2-9.8c2.4-5.3,2.5-7.4,0.5-11.2
	c-3-5.8-7.5-4.9-13.2,2.7c-2.1,2.9-6.1,6.9-8.9,9c-2.7,2-8.2,6.5-12.2,10c-7.3,6.4-8.2,6.8-16.1,7.7c-2.6,0.2-4.8,1.1-5.3,2
	c-0.6,1-2.3,1.6-4.4,1.6c-4.8,0-4-1.8,1.6-3.7c4.7-1.6,5.3-2.1,18.3-14.4c8.7-8.2,17.7-18.9,17.7-21.1c0-0.7,1.3-2.9,3-4.8
	c6.1-7.2,3-8.6-11-5.1c-8.9,2.2-12.3,3.6-17,7.1c-5.2,3.8-10.6,6-14.9,6c-4.7,0-6.6,2-7.6,8c-0.4,2.5-2.3,6.7-4.2,9.5
	C41.6,946.1,41.8,945.7,33,962c-5,9.1-11,23.3-13,30.5c-0.5,1.6-1.8,5.5-3,8.5c-6.6,17.1-10.3,32-15.9,63.6
	c-1.6,9-1.5,35.4,0.2,35.4c1.8,0,3.7-2,3.7-3.9c0.1-0.9,1.5-4.4,3.3-7.8c2.2-4.3,7.1-10.2,16.2-19.5c12.9-13.2,15.4-16.9,21.1-30.3
	c3.7-8.9,13.6-27.8,16.7-31.9c2.5-3.2,3.7-3.7,18.7-8.1c2.5-0.7,7-1.6,10-1.9c3-0.2,7.4-1.4,9.6-2.5c9.1-4.4,20.5-7.9,29.9-9
	c3.9-0.5,9.9-1.4,13.4-2.1c5.9-1.2,6.5-1.2,7.8,0.6c1.7,2.3,0.8,6.9-1.9,10.4c-4.2,5.3-24.9,26.9-69.3,72.1
	c-47.2,48-64,66.2-63.2,68.2c0.8,2.1,28,3.1,31.6,1.2c6.8-3.5,35.6-30.6,53.1-50c8.4-9.3,23.1-26.7,29-34.5
	c6-7.8,17.2-20.4,20.9-23.3c2-1.6,5.2-3.6,7.1-4.4c4.9-2.1,17-5.2,20.1-5.3c4,0,12.8-4.2,18.8-9c2.9-2.3,13.3-12.2,23-21.9
	c13.4-13.5,18.3-19.1,20.6-23.6c1.7-3.3,4.4-7.8,6.1-10.1c1.8-2.3,3.5-5.1,3.8-6.2c0.4-1.1,1.7-2.2,2.9-2.4c1.7-0.2,2.3-1.1,2.5-3.5
	c0.2-1.7,1-3.7,1.8-4.3c0.8-0.7,1.4-2,1.4-3s0.6-2.3,1.4-2.9c0.8-0.7,1.7-2.3,2-3.7c0.5-2,1.1-2.4,2.7-1.9c2.9,1,4.9-1.2,4.9-5.4
	c0-2,0.9-5,2-6.6c1.1-1.7,2-3.6,2-4.3s2.6-6.8,5.9-13.5c7.5-15.6,8.5-20.3,6.9-31.5c-1.1-8-1.5-8.9-6.9-16.2
	c-3.1-4.2-7.2-8.8-9-10.1c-1.9-1.3-8.6-7.1-14.9-12.9c-6.3-5.8-12.8-11.5-14.3-12.6c-3-2.4-3.5-4.4-1.2-4.4c2.2,0,6.1,2.6,12.1,7.9
	c2.7,2.6,8.4,7.4,12.5,10.8c10,8.3,17.9,16.2,17.9,17.9c0,0.8,4.3,5.6,9.5,10.7c5.3,5,15.7,15.3,23.3,22.7
	c12.6,12.5,24.9,23,26.9,23c1.3,0.1,5.3,3.7,5.3,4.9c0,0.6-1.5,3.4-3.2,6.1c-6.8,10.3-9,14-8.5,15.3c0.3,0.9,4.1,1.1,15.5,0.8
	l15.1-0.3l3.1,3c1.6,1.7,3,3.9,3,5c0,3.1,3.8,7.2,6.7,7.2c1.4,0,4.2,1.3,6.2,2.8s5.6,3.6,8.1,4.6c6.7,2.7,7.4,3.1,8.5,5.3
	c1.8,3.5,3.7,5.3,5.5,5.3c0.9,0,3.6,1.3,5.8,3c2.3,1.6,4.8,3,5.6,3c2.6,0,6.4,4,7,7.5c0.7,3.3,0.9,3.5,4.7,3.5
	c3.7,0,4.1,0.2,5.9,4.4c2.4,5.7,4.7,7,9.1,5.2c2.9-1.2,3.6-1.2,5.6,0.1c1.3,0.9,2.3,2.1,2.3,2.8c0,0.8,1,2.2,2.3,3.2
	s4.4,4.5,6.9,7.8c2.7,3.5,7.1,7.6,10.6,9.9c3.8,2.4,7.7,6.1,10.3,9.7c2.4,3.4,5,5.9,6,5.9s4.3-3.1,7.6-7.2c3.2-4,6.7-8.3,7.8-9.7
	c4.8-5.8,7.6-7.4,9-5.1c0.8,1.3,4.5,1.3,4.5,0c0-0.6-0.7-2.1-1.5-3.4c-1.9-2.8-1-5.5,3.3-10.6c2.5-2.9,3.3-3.3,4.9-2.4
	c1,0.6,2.3,3,3,5.3s2.3,5.6,3.7,7.2c1.5,1.7,2.6,3.7,2.6,4.4c0,1.7,5.7,6.5,7.7,6.5c0.9,0,3.8,1.3,6.5,3c6,3.7,7.5,3.7,14.1,0.2
	c2.8-1.5,7.8-3.6,10.9-4.7l5.8-1.9l8.5,4.3c4.7,2.3,9.4,5.4,10.5,6.8c2.1,2.7,2.8,9.7,1,10.8c-0.5,0.3-1,1.5-1,2.6
	c0,1.8,0.7,1.9,9.8,1.7c5.3-0.1,12,0.1,14.8,0.6c4.3,0.7,5.7,0.5,9.4-1.4c6.2-3.2,15.4-12.2,17.5-17.3c0.9-2.3,2-4.8,2.4-5.6
	s3.6-2.4,7-3.6c3.5-1.1,7.3-3.2,8.5-4.5c2.2-2.4,7.2-5.5,16.6-10.1c2.5-1.2,5.7-2.8,7.2-3.5c1.4-0.8,4.1-1.4,6-1.4
	c3.1,0,8.5-1.5,16.8-4.6c1.9-0.7,9.1-2,16-3c13.4-1.8,17-3.3,17-6.9c0-4.4,4.3-6.5,13.1-6.5c16.3,0,14.7,6.5-6.7,26.8
	c-10.5,10-10.7,10.2-10.1,13.8c0.8,4.6,4.2,8.4,7.6,8.4c4.9,0,15.3-3.7,24.4-8.6c4.1-2.3,5-1,4.3,5.9c-0.8,6.6-1,6.4,6.1,4.2
	c1.8-0.6,2.5-0.2,3.3,1.9c0.5,1.4,1.4,2.6,1.9,2.6c1.1,0,12.5-14.9,15.3-20c2.6-4.6,6-3.9,6.9,1.3c0.3,2.1,1.6,4.8,2.7,6
	c2,1.9,2.4,2,5,0.6c2.8-1.4,15.8-15.1,23.4-24.7c5.3-6.7,7.2-13.4,6.5-22.7c-0.4-4.1-0.3-7.6,0.2-7.9c0.9-0.6,11.6,4.7,16.1,8
	c0.8,0.6,3.4,1.8,5.6,2.7c3.8,1.4,4.3,1.4,6.5-0.1c4.8-3.3,8.7-11.1,8.9-17.7c0-2.2,0.7-6.7,1.5-10c3.4-14,1.6-33.9-6-66.5
	c-2.4-9.9-3.7-19-3.1-20.5c0.6-1.7,5.2-2,9.2-0.5c1.5,0.6,3.4,0.8,4.2,0.5c1-0.4-0.7-2.5-5.6-7.1c-8.5-7.8-13.2-14-16.2-21.4
	c-1.2-3-4.6-10.5-7.6-16.5c-2.9-6.1-5.7-12.6-6-14.5c-0.4-1.9-3.2-8.6-6.2-14.9c-6.2-13-8.7-21.7-7.2-25.6c1.5-4,1.2-9.3-0.7-12.2
	c-1.6-2.4-1.8-5.3-1.6-25.9c0.2-25.2,0.3-25.5,7-33.7c2.8-3.5,2.9-6.3,0.3-10.2c-2.5-3.7-2.5-6.5-0.2-9.6c2.1-2.8,5.6-13.8,4.7-14.7
	c-0.3-0.4-1.6-0.7-2.8-0.7c-3.6,0-3.4-3.5,0.3-6.5l3.3-2.7l-0.2-11.2c-0.2-13.2-1.9-19.9-2.1-8.1c0,8.1-1.2,11.7-3,9
	c-2.4-3.7-0.5-19.4,2.9-24.1c1.6-2.2,2.1-4.3,2.1-9.4c0-3.7-0.5-7.6-1.2-8.8c-0.7-1.4-1.2-7.8-1.3-16.7c-0.1-13.7-0.3-15-3.2-22.5
	c-3.3-8.5-6.3-19.8-6.3-23.7c0-1.2-0.6-5.2-1.5-8.8c-2.9-13.1-6.2-32.8-7.5-45c-1.5-15-4.9-38.5-7.6-53.5c-0.8-4.4-1.4-9.6-1.4-11.5
	c0-3.7-2.2-15.1-4.5-23.5c-2.6-9.2-4.5-18.1-4.5-20.9c0-1.5-0.6-4.2-1.3-5.9c-1.8-4.2-5.2-15.8-9.2-31.7c-1-3.6-2.3-8.3-3-10.5
	s-2.7-8.7-4.5-14.5s-3.8-12.1-4.5-14c-2.7-7.7-3.7-10.6-4.5-13.5c-0.5-1.7-1.8-5.5-3-8.5s-2.5-6.6-3-8c-0.4-1.4-1.8-4.8-3-7.5
	c-2.6-6.1-4.8-12-6-16c-0.8-2.9-1.9-6.2-4.5-13.5c-2-5.4-8.4-20.8-11.7-28c-5.5-11.9-10.4-21.2-13.4-25.5c-1.2-1.7-3.2-5-4.5-7.5
	c-7.8-14.5-27.2-39.5-42.3-54.5c-25.8-25.7-52.3-44.6-85.9-61.1c-5-2.5-10.4-5.2-11.9-6c-1.4-0.8-3.6-1.4-4.8-1.4s-3.1-0.5-4.3-1.2
	c-1.2-0.6-3.5-1.5-5.2-1.9c-1.6-0.4-5.5-1.7-8.5-2.9c-10.3-4-15.5-5.1-28.5-5.9c-7.1-0.5-15-1.4-17.5-2c-7.2-1.7-39.3-5.3-55-6.2
	c-8-0.5-17.2-1.5-20.5-2.3s-7.7-1.8-9.7-2.1c-2.4-0.4-3.8-1.1-3.8-2c0-1.2-1.7-1.5-8-1.5C430.3,0,428.1,0.3,428.3,1.2L428.3,1.2z
	 M328,162.1c8.8,12.9,14.9,22.2,16,24.4c0.6,1.1,1.9,3.3,3,5c1.1,1.6,2.3,3.6,2.6,4.3c0.4,0.7,5.3,8.3,11,16.9
	c5.7,8.5,10.4,15.7,10.4,15.9c0,0.1,1.9,3.1,4.3,6.6c5,7.3,15.2,24.3,18.5,30.8c1.3,2.5,3.4,6.4,4.7,8.7c3.9,7.1,0.4,6.6-4.9-0.7
	c-1.2-1.6-5.3-7.1-9.1-12.2c-3.9-5.1-8.6-11.8-10.4-14.8s-4.5-6.9-6.1-8.5c-2.4-2.7-7.6-10.7-11.3-17.6c-1.2-2.2-6.5-10.3-14-21
	c-1.8-2.6-4.1-6.2-5.2-8c-1.1-1.9-3.2-5.4-4.7-7.9c-6.1-10.3-13.3-27.3-12.2-29.1C321.6,153.2,322.6,154.1,328,162.1L328,162.1z
	 M349.7,168.6c-0.9,0.9-2.8-0.6-2.1-1.8c0.4-0.6,1-0.6,1.7,0.1C349.9,167.5,350.1,168.2,349.7,168.6z M362,187.4
	c0,0.7,0.7,1.9,1.5,2.6c1.7,1.4,2,4.6,0.6,5.4c-1,0.7-5.1-5.7-5.1-8c0-0.8,0.7-1.4,1.5-1.4S362,186.6,362,187.4z M198,294
	c0,0.5-0.8,1.7-1.9,2.7c-4.2,4.1-6.6,12.6-7.7,27.8c-0.6,8.3-0.5,9.2,1.6,11.8c1.6,2,2.7,2.6,4.4,2.1c2.9-0.7,5.8,2,5.4,5
	c-0.2,1.7-1.5,2.4-6.1,3.5c-6.5,1.5-11.2,0.4-12.2-3c-0.4-1-0.9-1.9-1.3-1.9c-1,0-7.2,10.9-7.2,12.5c0,3-3.4,11.5-4.6,11.5
	c-2.1,0-3.4-3.4-3.4-8.8c0-12.4,7.4-41.3,10.2-39.6c0.4,0.3,0.8,2.4,0.8,4.7c0.1,4.3,2.7,10.9,4.5,11.1c0.6,0,1.1-1.3,1.3-2.9
	c0.1-1.7,0.9-6,1.7-9.7s1.5-8,1.5-9.6c0-1.5,0.7-5.1,1.5-7.9c1.1-3.8,2.4-5.6,5.2-7.6C195.7,293,198,292.3,198,294z M82.7,310.1
	c1.4,1.4,0.7,3.4-2.7,7.9c-3.3,4.2-5.9,15.2-6.3,25.8c-0.2,8,1.1,10.2,5.9,10.2c3.1,0,4.7,2.4,3.9,6c-0.4,1.6-1,3-1.3,3.1
	c-0.4,0-5,0.2-10.2,0.5c-10.8,0.5-12.5,1.6-13.3,8.9c-0.6,5.6-3.1,11.6-5.2,12.8c-1.5,0.8-2.3,0.4-4.2-1.7c-2-2.4-2.3-3.7-2.3-11.4
	c0.1-5.7,0.6-9.6,1.5-11.2c0.8-1.4,1.4-5.1,1.5-8.3c0-3.3,0.6-7.3,1.4-9c2.4-5.5,4.3-11.9,6.2-20.5c1.6-7.1,2.4-8.7,4.9-10.5
	C66.7,309.6,80.5,307.9,82.7,310.1L82.7,310.1z M56.5,407.7c2,2.2,2.5,3.8,2.5,7.8c0.1,2.7,0.7,6.1,1.5,7.5c1.9,3.3,2,10,0.2,10
	c-2.7,0-4.4-3.7-7.2-14.9c-2.3-9.4-2.5-11.5-1.4-12.2C53.9,404.8,53.6,404.6,56.5,407.7L56.5,407.7z M377,507.4c0,0.8-0.4,1.8-1,2.1
	c-0.5,0.3-1-0.3-1-1.4c0-1.2,0.5-2.1,1-2.1C376.6,506,377,506.6,377,507.4z M285.7,697.7c0.5,1.3-2.5,2.6-3.8,1.7
	c-0.6-0.3-0.5-1.1,0.2-2C283.4,695.8,285.2,696,285.7,697.7L285.7,697.7z M212,791.8c0,2-0.5,5.3-1,7.2c-0.6,1.9-1.5,10.7-2.1,19.5
	c-0.9,13.9-1.4,16.7-3.6,21.2c-2.9,5.9-12,16.6-13.4,15.7c-1.3-0.8-1.1-6.8,0.5-11.1c1.4-4,3.2-9.8,6.1-19.8c1-3.3,2.3-7.6,3-9.5
	s2-6.8,3-10.9c0.9-4.1,2.3-8.4,3.1-9.5s1.4-3,1.4-4.2c0-1.1,0.3-2.4,0.6-2.7C210.9,786.4,212,788.2,212,791.8z M188,911.5
	c0,0.8-0.4,1.5-0.9,1.5c-1.3,0-2.2-1.6-1.4-2.4C186.8,909.5,188,910,188,911.5L188,911.5z M218,974.3c0,1.5-4,4.1-4.8,3.1
	c-0.4-0.4-0.1-0.9,0.6-1.1c0.6-0.3,1.2-1.1,1.2-1.9c0-0.8,0.7-1.4,1.5-1.4S218,973.6,218,974.3L218,974.3z M173.5,1006.9
	c0.7,1.2-1.2,2.4-2.5,1.6c-1.1-0.7-0.4-2.5,1-2.5C172.5,1006,173.1,1006.4,173.5,1006.9z"/>
<path class="st0" d="M67.3,318.4c-2.2,2.7-4.7,16.9-4.2,22.6c0.5,4.2,3.5,5.5,4.3,1.8c0.3-1.3,1.2-5.3,2-8.9
	c1.8-7.2,2.1-16.5,0.7-17.4C69.6,316.2,68.3,317.1,67.3,318.4z M92.5,484.9c-4.1,1-7.3,2.8-11.5,6.4c-5.8,5-6.2,6-4.4,10.3
	c2.1,4.9,13.4,15.9,19.2,18.6c2.4,1.2,4.6,2.7,4.9,3.4c0.2,0.7,2.3,2.3,4.6,3.5c2.3,1.1,5.7,3.4,7.5,5s4.5,2.9,6,2.9
	c1.5,0.1,3.8,0.7,5.2,1.5c6.5,3.7,22.4,0.3,40.9-8.8c12.8-6.3,15.5-10.3,14.4-21.2c-1-10.4-3.9-13.6-7.2-8
	c-2.4,4.2-4.9,4.9-12.1,3.6c-8.8-1.5-32.3-9.6-40.3-13.8c-1.5-0.8-4-2.1-5.5-2.9C111.3,483.9,97.9,483.6,92.5,484.9L92.5,484.9z
	 M101.5,533c-0.4,0.6-0.3,1.6,0.3,2.2c0.6,0.6,1.2,0.6,1.7-0.2c0.4-0.6,0.3-1.6-0.3-2.2C102.6,532.2,102,532.2,101.5,533z
	 M241.3,579.7c-3,2-2.9,3.8,0.3,6.6c1.5,1.2,3.3,3.7,4.1,5.5c1.6,3.9,3.9,5,6,3c1.1-1.1,1.2-2.1,0.5-3.4c-0.5-1.1-1.3-3.7-1.7-5.9
	C249.3,578.6,245.9,576.4,241.3,579.7L241.3,579.7z M127.5,583.3c-1.1,0.8-3,1.7-4.2,2.1c-2.6,0.8-12.7,7.4-13.1,8.5
	c-0.9,2.6,3.8,3.2,32,4.1c16.1,0.5,32.2,1.5,35.7,2.1c5.6,1.1,6.5,1.6,7.3,4.1c1.4,4.1,3.4,4.7,10.3,3.6c4.2-0.8,11.1-0.8,23.5,0.1
	c24.3,1.6,25.7,1.5,27-0.9c1.1-2.1,0-3.6-6.7-8.6c-1.6-1.3-3.6-4.3-4.7-7.3l-1.8-5.1h-6.6c-5.3,0-7-0.4-8.8-2.1
	c-2.3-2.1-2.5-2.1-8.6-0.6c-10.5,2.6-23.8,3-40.8,1.3C142.2,582.1,129.8,581.7,127.5,583.3L127.5,583.3z M157.5,611.7
	c-6.5,1.9-13.1,3.6-23,5.8c-4.4,1-8.4,2.2-8.8,2.5c-1.4,1.3,4.3,4.9,8.6,5.5c5.2,0.8,11.7-0.7,22.2-5.1c10.7-4.4,16.8-8.1,16-9.5
	C171.6,609.5,163.2,610,157.5,611.7z M146.7,640.6c-1.6,1.6-0.6,6.3,1.5,7.8s2.4,1.4,4.5-0.6c1.2-1.3,2.4-3.4,2.5-4.8
	c0.3-2.3-0.1-2.5-3.7-2.8C149.2,640,147.1,640.2,146.7,640.6L146.7,640.6z"/>
</svg>
