<svg version="1" xmlns="http://www.w3.org/2000/svg" viewBox="0 0 900 1137">
  <path d="M428.3 1.2c.1.8-1.9 1.6-5.3 2.3-3 .6-8 2.2-11 3.7-9.4 4.6-11.1 4.9-25.5 5.4-18.2.6-32.7 3.6-44.3 9.1-3.6 1.8-8.2 2.8-14.5 3.5-5 .5-10.8 1.3-12.7 1.8-1.9.6-4.5 1-5.8 1-3.5 0-9.7 4.4-12.9 9.2-1.7 2.6-4.1 4.7-5.9 5.3-4.6 1.5-6.4 3.4-6.4 6.6 0 3.1-2.3 4.1-3.4 1.4-.3-.8-1.4-1.5-2.4-1.5-1.1 0-2.5.7-3.2 1.5-1.6 2-6 1.9-8.8-.1-1.7-1.2-3.9-1.5-8.5-1.2-8.9.6-15.2 3.2-24.2 9.9-2.7 2-7.3 4.9-10.2 6.4-4.6 2.4-5.6 3.4-8.8 10-4.1 8.5-8.2 12.9-21.5 23.6-5.2 4.2-10.3 8.6-11.4 9.7-1 1.2-3.8 3.1-6.2 4.3-5.1 2.4-12.4 10.2-15.2 16.2-1.9 4-5.1 11.1-9.2 20.2-2 4.5-1.9 4.3-6.7 17.5-5.8 16-5.3 22 1 12.9 3.9-5.4 27.9-33.3 33.6-39 2.5-2.5 7.5-6.7 11.1-9.4 3.6-2.7 7.1-5.5 7.9-6.3 1.3-1.2 11.8-8.6 15.3-10.7 5.2-3.2 15-7.9 19.8-9.6 6.1-2.1 19.7-2.6 26.5-.8 2.2.6 5.8 1.4 8 1.8 5.8 1.1 9.7 3.8 13.9 9.5 3.6 4.7 11.6 20.4 11.6 22.6 0 .5.6 2.4 1.4 4.2.8 1.8 2.8 6.9 4.6 11.3 1.8 4.4 3.8 9.5 4.6 11.3.8 1.8 1.4 5 1.4 7.1 0 3.3 1.6 8 7.6 21.6 3.3 7.7 5.2 11.4 8.5 16.5 4.8 7.6 7.5 13 8.4 16.8.3 1.8 2.1 5.4 3.9 8 1.8 2.6 3.6 5.9 4 7.2.4 1.4 1.3 3.8 2.1 5.5.7 1.6 2.1 6.1 2.9 9.8 1 4.4 2.6 8.2 4.6 10.7 3.4 4.3 3.6 5.6 1.5 12.4-2 6.5-2 13.5 0 14.2.8.4 1.5 1.2 1.5 2 0 1.9-12.6 1.9-22.7-.1-17-3.4-23-4.7-27.9-6.1-2.8-.8-5.8-1.4-6.7-1.4-1 0-3.4-.9-5.4-2-2.1-1.1-5.2-2-7-2-2.3 0-3.7-.7-4.9-2.4-1.4-2.2-2-2.4-6.4-1.9-4.2.5-4.9.3-6-1.6-.9-1.8-1.7-2.1-4-1.6-1.6.3-6.6-.3-11.5-1.4-6.4-1.6-12-2.1-21.5-2.1-13 0-14.8.4-23.3 4.6-1.6.8-3.9 1.4-5.1 1.4-7 0-30.5 17.1-34.7 25.3-1.1 2.1-3.2 4.3-4.7 4.9-1.5.5-8.5 1.4-15.6 1.9-12.5.8-13 .9-16 3.8-1.8 1.7-3.7 3.1-4.4 3.1-.7 0-1.2.4-1.2.9 0 1.5-4.1 2.4-5.3 1.2-.7-.7-.5-1.2.9-1.7 6.5-2.4 7.3-7.8 1.6-12.1-5.4-4.1-12.4-7.9-17.4-9.6-3.6-1.2-2.9 1.7 1.6 6.2 2.5 2.6 4.6 5.4 4.6 6.4 0 2.2-.6 2.1-3.8-.1-8.6-5.9-10.9-6.5-26.2-6.6-15.8-.1-16.4 0-25.5 6.9-10.7 8-15.7 19-17.5 38.2-.5 5.4-1.4 13.4-2 17.8-2 14.7 2.5 43.7 11.1 70.5 3.4 10.5 11.9 27.1 15.5 30.1 2.2 1.8 5.4-.3 8.3-5.4 6.1-10.8 13.6-20.8 20.5-26.9 7.9-7.2 20.7-21.8 25-28.7 1.5-2.3 6.3-8.5 10.8-13.9 13-15.4 18.9-25.5 20.2-34.3.4-2.7 1.5-5.4 2.6-6.4 1.9-1.7 2-1.7 3.6 2 .8 2 1.9 8.5 2.4 14.4.5 5.8 1.4 13.3 2 16.6.5 3.3 1 7.8 1 9.9 0 4.5 2.5 15.6 4.5 20.1.7 1.6 2.1 5 3 7.5 7.7 20 15.9 33.4 27.1 44.2 7.9 7.6 13.3 11.3 25.4 17.3l6.6 3.4 28.1.2c23.5.1 28.5-.1 30.9-1.4 1.6-.8 4.8-2.3 7-3.2 3.1-1.2 5.4-3.4 8.9-8.3 2.7-3.7 5.7-7.4 6.8-8.3 2-1.6 2-1.8.3-7.5-.9-3.3-2.1-7.3-2.7-8.9-.6-1.7-1.4-4.5-1.9-6.3-.5-1.9-1.6-4.2-2.6-5.3-1.6-1.7-1.9-1.8-3.5-.3-2.3 2-3.4.2-1.7-2.8 2-3.7 3.8-9.1 3.8-11.8 0-1.4.9-4.5 2-6.9 1.1-2.4 2-5.1 2-6.1s.7-2.3 1.5-3c1.1-.9 1.5-3.3 1.5-8.4 0-8.6.8-10.1 4.6-9.2 9.2 2.2 15 2.7 24.7 2.2 11.2-.6 15.3-1.9 19.3-6.1 3-3.2 16.2-4.4 21.9-2.1 6.1 2.6 7.6 4.4 7.4 9-.1 2.3.1 4.8.5 5.8.5 1.1-.4 2.9-3 5.8l-3.7 4.1 1.6 3.5c2 4.1 2.2 9.6.5 12.5-1.1 1.7-1 2.2.5 3 2.4 1.4 6.3 7.7 7.2 11.7.5 2.3.2 4-.9 5.7-1.5 2.3-1.5 2.8.5 6.7 1.7 3.3 1.9 4.6 1 6-.6 1-1.1 3.4-1.1 5.3 0 3.5-3 10.8-5 12-.5.3-1 1.5-1 2.6 0 1.4.7 1.9 2.5 1.9 3.7 0 4 2.2.8 7.1-1.5 2.4-3.4 5.3-4.1 6.4-.7 1.1-2.2 3.4-3.3 5.2-1.1 1.8-2.9 3.5-4 3.8-1.5.5-1.8 1.2-1.3 2.3 1.5 3.4.5 6.5-4.1 12.3-3.7 4.8-4.6 6.6-4.3 8.9.5 3.2-.7 4.2-3.4 2.9-1-.6-1.9-.5-2.4.2-.4.7-2.6.8-6.3.4-5.4-.6-5.8-.5-10.3 2.9-3.8 2.9-5.5 3.6-9.3 3.6-2.5 0-5.8-.6-7.3-1.4-5.1-2.5-7.8-2.7-10.2-.6-1.3 1.1-3.5 2.3-4.9 2.6-8.3 1.9-10.9 2.9-14.3 5.6-3.2 2.5-4.3 2.8-7.3 2.2-3.2-.6-4.1-.3-6.9 2.6l-3.4 3.2-10.5-.8c-12.1-.8-12.3-.6-13.4 8.5-.5 4.2-.3 5 1.4 5.9 1.1.6 2.5.7 3.3.2 1.7-1 3-.4 3 1.4 0 1.6 7.4 12.9 9.3 14.3.6.5 3.2 1.7 5.7 2.7 2.5 1.1 7.3 3.2 10.7 4.8 8.6 4.1 13.6 4.7 17.3 1.9 1.6-1.1 3.3-2.1 3.9-2.1.5 0 2.7 2 4.8 4.3 5.9 6.8 11.7 9.1 16.4 6.7 3.6-2 1.3-5.8-2.6-4.4-2.6 1-2.9-2.4-.4-4.6 1.3-1 2.9-2 3.4-2 .6 0 2.6-.5 4.7-1 2.7-.8 3.9-1.8 4.7-4 .9-2.7 1.3-2.9 4.1-2.4 2.1.5 3.6.2 4.8-.9 1.6-1.4 2-1.3 4.9 2.2 4.4 5.2 5.4 9.6 3.5 14.5-1.5 3.7-1.4 4.1.8 8.3 2.1 3.9 2.2 4.6.9 6.9-1.2 2.3-1.1 2.7.4 3.5 1.7 1 2.4 5.9.9 5.9-.5 0-2.3 1.9-4 4.2-1.7 2.4-5.3 6.6-7.9 9.4-10.2 10.7-11.3 12.3-11.3 16 0 4.8-3.5 10.8-7.9 13.8-4.9 3.3-16.6 7.8-19.4 7.4-1.6-.2-2.3-1.1-2.5-3.1-.3-2.3-.8-2.7-3.5-2.7-1.8 0-4.2.7-5.4 1.5-2.2 1.5-5.3 1.1-5.3-.7 0-2.1 2.2-4.9 5.1-6.3 2.6-1.4 3-2.1 2.7-5.3-.2-3-.7-3.8-2.7-4-1.4-.2-3.5-1.1-4.7-1.9-2.9-1.8-4.8-.9-3.4 1.7 1.1 2.1-.4 3-4.8 3-3.6 0-4.9 1-5.7 4-.9 3.9 1 7.8 4.2 8.6 5.1 1.1 8.2 2.8 8.7 4.8.7 2.6-.1 3.6-2.8 3.6-1.2 0-3.3 1.1-4.6 2.5-2 2.1-2.2 2.9-1.2 4.3 3.5 5.1 4.1 6.9 2.8 8.7-1.1 1.6-1.8 1.6-4.6.7-4.5-1.6-7.5-1.5-9.1.4-1 1.2-2.5 1.4-7.3.9-5.9-.7-6.3-.6-12.2 3.4-3.3 2.2-8 5.7-10.5 7.8-10.8 9.4-17 13.3-21.2 13.3-1.3 0-4 1.3-5.8 3-1.9 1.6-6.3 4.6-9.9 6.5-3.6 2-8 4.5-9.8 5.7-3 1.9-3.9 1.9-10.4 1-5.8-.9-7.8-.8-10.3.3-1.6.8-5.2 1.7-8 2.1-6.6.8-12.5 4.4-14.9 8.8-1 2-3 4.3-4.2 5.1-3.1 2-3 3.6.2 7.5 2.8 3.3 11.1 8 14.1 8 1 0 2.9.7 4.2 1.6 2.2 1.6 2.3 2.1 1.7 8.3-.3 3.6-.9 7.7-1.2 8.9-.6 2.1-.4 2.3 1.7 2 2.1-.3 2.7-1.3 4.4-8.4 1.2-4.5 2.7-8.9 3.4-9.8 1.8-2.2 7.4-2 9.4.2 2.2 2.4 2.1 4.7-.3 10.1-1.1 2.4-2 5.9-2 7.8 0 3.3-1.8 13-4.1 22.3-.7 2.5-1.5 6.3-1.9 8.5-.9 4.8-5.9 23-9.6 34.8-2.1 7-2.9 13.6-1.6 14.9 1.3 1.3 3.9-4.1 7.1-14.2 1.1-3.6 3-9 4.1-12 1.2-3 3.1-8.2 4.2-11.5 1.2-3.3 2.7-6.9 3.5-8 .7-1.1 1.3-3.3 1.3-5 0-3.5 2.4-7.5 4.6-7.5.8 0 1.4.1 1.4.2 0 2.5-4.5 21.9-6 26.3-1.2 3.3-2.5 7.4-2.9 9.1-.5 1.8-2 6.3-3.4 10-1.3 3.8-3.3 9.4-4.2 12.4-1 3-2.4 6.4-3.2 7.5-.8 1.2-1.3 4.8-1.3 9.3 0 5.8-.5 8.3-2.5 12.3-1.4 2.7-3.3 5.7-4.3 6.7-2.2 2.2-7.4 14.1-6.6 15.3.3.5 1.4.9 2.4.9 2.9 0 3.4 1.8 1.4 4.8-1 1.5-2.7 4.3-3.8 6.2-2.6 4.8-7 10.4-13.7 17.4-3.2 3.2-6.5 7.6-7.6 9.7-2.4 4.9-4.4 6-11.4 6.3l-5.9.3-12.2 11.9c-14 13.5-20.5 17.5-30.1 18.2-7.2.6-9.4-.9-5.8-3.9 1.3-1 3.4-1.9 4.7-1.9 3.9 0 10.1-4.6 13-9.5 1.4-2.5 3.9-5.2 5.5-6.1 3.2-1.6 7.5-6 11.2-11.5 2.8-4.1 11.7-22.2 11.7-23.8 0-1.6 7.2-6.1 9.8-6.1 2.9 0 6.7-4 9.2-9.8 2.4-5.3 2.5-7.4.5-11.2-3-5.8-7.5-4.9-13.2 2.7-2.1 2.9-6.1 6.9-8.9 9-2.7 2-8.2 6.5-12.2 10-7.3 6.4-8.2 6.8-16.1 7.7-2.6.2-4.8 1.1-5.3 2-.6 1-2.3 1.6-4.4 1.6-4.8 0-4-1.8 1.6-3.7 4.7-1.6 5.3-2.1 18.3-14.4 8.7-8.2 17.7-18.9 17.7-21.1 0-.7 1.3-2.9 3-4.8 6.1-7.2 3-8.6-11-5.1-8.9 2.2-12.3 3.6-17 7.1-5.2 3.8-10.6 6-14.9 6-4.7 0-6.6 2-7.6 8-.4 2.5-2.3 6.7-4.2 9.5C41.6 946.1 41.8 945.7 33 962c-5 9.1-11 23.3-13 30.5-.5 1.6-1.8 5.5-3 8.5-6.6 17.1-10.3 32-15.9 63.6-1.6 9-1.5 35.4.2 35.4 1.8 0 3.7-2 3.7-3.9.1-.9 1.5-4.4 3.3-7.8 2.2-4.3 7.1-10.2 16.2-19.5 12.9-13.2 15.4-16.9 21.1-30.3 3.7-8.9 13.6-27.8 16.7-31.9 2.5-3.2 3.7-3.7 18.7-8.1 2.5-.7 7-1.6 10-1.9 3-.2 7.4-1.4 9.6-2.5 9.1-4.4 20.5-7.9 29.9-9 3.9-.5 9.9-1.4 13.4-2.1 5.9-1.2 6.5-1.2 7.8.6 1.7 2.3.8 6.9-1.9 10.4-4.2 5.3-24.9 26.9-69.3 72.1-47.2 48-64 66.2-63.2 68.2.8 2.1 28 3.1 31.6 1.2 6.8-3.5 35.6-30.6 53.1-50 8.4-9.3 23.1-26.7 29-34.5 6-7.8 17.2-20.4 20.9-23.3 2-1.6 5.2-3.6 7.1-4.4 4.9-2.1 17-5.2 20.1-5.3 4 0 12.8-4.2 18.8-9 2.9-2.3 13.3-12.2 23-21.9 13.4-13.5 18.3-19.1 20.6-23.6 1.7-3.3 4.4-7.8 6.1-10.1 1.8-2.3 3.5-5.1 3.8-6.2.4-1.1 1.7-2.2 2.9-2.4 1.7-.2 2.3-1.1 2.5-3.5.2-1.7 1-3.7 1.8-4.3.8-.7 1.4-2 1.4-3s.6-2.3 1.4-2.9c.8-.7 1.7-2.3 2-3.7.5-2 1.1-2.4 2.7-1.9 2.9 1 4.9-1.2 4.9-5.4 0-2 .9-5 2-6.6 1.1-1.7 2-3.6 2-4.3 0-.7 2.6-6.8 5.9-13.5 7.5-15.6 8.5-20.3 6.9-31.5-1.1-8-1.5-8.9-6.9-16.2-3.1-4.2-7.2-8.8-9-10.1-1.9-1.3-8.6-7.1-14.9-12.9-6.3-5.8-12.8-11.5-14.3-12.6-3-2.4-3.5-4.4-1.2-4.4 2.2 0 6.1 2.6 12.1 7.9 2.7 2.6 8.4 7.4 12.5 10.8 10 8.3 17.9 16.2 17.9 17.9 0 .8 4.3 5.6 9.5 10.7 5.3 5 15.7 15.3 23.3 22.7 12.6 12.5 24.9 23 26.9 23 1.3.1 5.3 3.7 5.3 4.9 0 .6-1.5 3.4-3.2 6.1-6.8 10.3-9 14-8.5 15.3.3.9 4.1 1.1 15.5.8l15.1-.3 3.1 3c1.6 1.7 3 3.9 3 5 0 3.1 3.8 7.2 6.7 7.2 1.4 0 4.2 1.3 6.2 2.8 2 1.5 5.6 3.6 8.1 4.6 6.7 2.7 7.4 3.1 8.5 5.3 1.8 3.5 3.7 5.3 5.5 5.3.9 0 3.6 1.3 5.8 3 2.3 1.6 4.8 3 5.6 3 2.6 0 6.4 4 7 7.5.7 3.3.9 3.5 4.7 3.5 3.7 0 4.1.2 5.9 4.4 2.4 5.7 4.7 7 9.1 5.2 2.9-1.2 3.6-1.2 5.6.1 1.3.9 2.3 2.1 2.3 2.8 0 .8 1 2.2 2.3 3.2 1.3 1 4.4 4.5 6.9 7.8 2.7 3.5 7.1 7.6 10.6 9.9 3.8 2.4 7.7 6.1 10.3 9.7 2.4 3.4 5 5.9 6 5.9s4.3-3.1 7.6-7.2c3.2-4 6.7-8.3 7.8-9.7 4.8-5.8 7.6-7.4 9-5.1.8 1.3 4.5 1.3 4.5 0 0-.6-.7-2.1-1.5-3.4-1.9-2.8-1-5.5 3.3-10.6 2.5-2.9 3.3-3.3 4.9-2.4 1 .6 2.3 3 3 5.3.7 2.3 2.3 5.6 3.7 7.2 1.5 1.7 2.6 3.7 2.6 4.4 0 1.7 5.7 6.5 7.7 6.5.9 0 3.8 1.3 6.5 3 6 3.7 7.5 3.7 14.1.2 2.8-1.5 7.8-3.6 10.9-4.7l5.8-1.9 8.5 4.3c4.7 2.3 9.4 5.4 10.5 6.8 2.1 2.7 2.8 9.7 1 10.8-.5.3-1 1.5-1 2.6 0 1.8.7 1.9 9.8 1.7 5.3-.1 12 .1 14.8.6 4.3.7 5.7.5 9.4-1.4 6.2-3.2 15.4-12.2 17.5-17.3.9-2.3 2-4.8 2.4-5.6.4-.8 3.6-2.4 7-3.6 3.5-1.1 7.3-3.2 8.5-4.5 2.2-2.4 7.2-5.5 16.6-10.1 2.5-1.2 5.7-2.8 7.2-3.5 1.4-.8 4.1-1.4 6-1.4 3.1 0 8.5-1.5 16.8-4.6 1.9-.7 9.1-2 16-3 13.4-1.8 17-3.3 17-6.9 0-4.4 4.3-6.5 13.1-6.5 16.3 0 14.7 6.5-6.7 26.8-10.5 10-10.7 10.2-10.1 13.8.8 4.6 4.2 8.4 7.6 8.4 4.9 0 15.3-3.7 24.4-8.6 4.1-2.3 5-1 4.3 5.9-.8 6.6-1 6.4 6.1 4.2 1.8-.6 2.5-.2 3.3 1.9.5 1.4 1.4 2.6 1.9 2.6 1.1 0 12.5-14.9 15.3-20 2.6-4.6 6-3.9 6.9 1.3.3 2.1 1.6 4.8 2.7 6 2 1.9 2.4 2 5 .6 2.8-1.4 15.8-15.1 23.4-24.7 5.3-6.7 7.2-13.4 6.5-22.7-.4-4.1-.3-7.6.2-7.9.9-.6 11.6 4.7 16.1 8 .8.6 3.4 1.8 5.6 2.7 3.8 1.4 4.3 1.4 6.5-.1 4.8-3.3 8.7-11.1 8.9-17.7 0-2.2.7-6.7 1.5-10 3.4-14 1.6-33.9-6-66.5-2.4-9.9-3.7-19-3.1-20.5.6-1.7 5.2-2 9.2-.5 1.5.6 3.4.8 4.2.5 1-.4-.7-2.5-5.6-7.1-8.5-7.8-13.2-14-16.2-21.4-1.2-3-4.6-10.5-7.6-16.5-2.9-6.1-5.7-12.6-6-14.5-.4-1.9-3.2-8.6-6.2-14.9-6.2-13-8.7-21.7-7.2-25.6 1.5-4 1.2-9.3-.7-12.2-1.6-2.4-1.8-5.3-1.6-25.9.2-25.2.3-25.5 7-33.7 2.8-3.5 2.9-6.3.3-10.2-2.5-3.7-2.5-6.5-.2-9.6 2.1-2.8 5.6-13.8 4.7-14.7-.3-.4-1.6-.7-2.8-.7-3.6 0-3.4-3.5.3-6.5l3.3-2.7-.2-11.2c-.2-13.2-1.9-19.9-2.1-8.1 0 8.1-1.2 11.7-3 9-2.4-3.7-.5-19.4 2.9-24.1 1.6-2.2 2.1-4.3 2.1-9.4 0-3.7-.5-7.6-1.2-8.8-.7-1.4-1.2-7.8-1.3-16.7-.1-13.7-.3-15-3.2-22.5-3.3-8.5-6.3-19.8-6.3-23.7 0-1.2-.6-5.2-1.5-8.8-2.9-13.1-6.2-32.8-7.5-45-1.5-15-4.9-38.5-7.6-53.5-.8-4.4-1.4-9.6-1.4-11.5 0-3.7-2.2-15.1-4.5-23.5-2.6-9.2-4.5-18.1-4.5-20.9 0-1.5-.6-4.2-1.3-5.9-1.8-4.2-5.2-15.8-9.2-31.7-1-3.6-2.3-8.3-3-10.5-.7-2.2-2.7-8.7-4.5-14.5-1.8-5.8-3.8-12.1-4.5-14-2.7-7.7-3.7-10.6-4.5-13.5-.5-1.7-1.8-5.5-3-8.5s-2.5-6.6-3-8c-.4-1.4-1.8-4.8-3-7.5-2.6-6.1-4.8-12-6-16-.8-2.9-1.9-6.2-4.5-13.5-2-5.4-8.4-20.8-11.7-28-5.5-11.9-10.4-21.2-13.4-25.5-1.2-1.7-3.2-5-4.5-7.5-7.8-14.5-27.2-39.5-42.3-54.5-25.8-25.7-52.3-44.6-85.9-61.1-5-2.5-10.4-5.2-11.9-6-1.4-.8-3.6-1.4-4.8-1.4-1.2 0-3.1-.5-4.3-1.2-1.2-.6-3.5-1.5-5.2-1.9-1.6-.4-5.5-1.7-8.5-2.9-10.3-4-15.5-5.1-28.5-5.9-7.1-.5-15-1.4-17.5-2-7.2-1.7-39.3-5.3-55-6.2-8-.5-17.2-1.5-20.5-2.3-3.3-.8-7.7-1.8-9.7-2.1-2.4-.4-3.8-1.1-3.8-2 0-1.2-1.7-1.5-8-1.5-5.7 0-7.9.3-7.7 1.2zM328 162.1c8.8 12.9 14.9 22.2 16 24.4.6 1.1 1.9 3.3 3 5 1.1 1.6 2.3 3.6 2.6 4.3.4.7 5.3 8.3 11 16.9 5.7 8.5 10.4 15.7 10.4 15.9 0 .1 1.9 3.1 4.3 6.6 5 7.3 15.2 24.3 18.5 30.8 1.3 2.5 3.4 6.4 4.7 8.7 3.9 7.1.4 6.6-4.9-.7-1.2-1.6-5.3-7.1-9.1-12.2-3.9-5.1-8.6-11.8-10.4-14.8-1.8-3-4.5-6.9-6.1-8.5-2.4-2.7-7.6-10.7-11.3-17.6-1.2-2.2-6.5-10.3-14-21-1.8-2.6-4.1-6.2-5.2-8-1.1-1.9-3.2-5.4-4.7-7.9-6.1-10.3-13.3-27.3-12.2-29.1 1-1.7 2-.8 7.4 7.2zm21.7 6.5c-.9.9-2.8-.6-2.1-1.8.4-.6 1-.6 1.7.1.6.6.8 1.3.4 1.7zm12.3 18.8c0 .7.7 1.9 1.5 2.6 1.7 1.4 2 4.6.6 5.4-1 .7-5.1-5.7-5.1-8 0-.8.7-1.4 1.5-1.4s1.5.6 1.5 1.4zM198 294c0 .5-.8 1.7-1.9 2.7-4.2 4.1-6.6 12.6-7.7 27.8-.6 8.3-.5 9.2 1.6 11.8 1.6 2 2.7 2.6 4.4 2.1 2.9-.7 5.8 2 5.4 5-.2 1.7-1.5 2.4-6.1 3.5-6.5 1.5-11.2.4-12.2-3-.4-1-.9-1.9-1.3-1.9-1 0-7.2 10.9-7.2 12.5 0 3-3.4 11.5-4.6 11.5-2.1 0-3.4-3.4-3.4-8.8 0-12.4 7.4-41.3 10.2-39.6.4.3.8 2.4.8 4.7.1 4.3 2.7 10.9 4.5 11.1.6 0 1.1-1.3 1.3-2.9.1-1.7.9-6 1.7-9.7.8-3.7 1.5-8 1.5-9.6 0-1.5.7-5.1 1.5-7.9 1.1-3.8 2.4-5.6 5.2-7.6 4-2.7 6.3-3.4 6.3-1.7zM82.7 310.1c1.4 1.4.7 3.4-2.7 7.9-3.3 4.2-5.9 15.2-6.3 25.8-.2 8 1.1 10.2 5.9 10.2 3.1 0 4.7 2.4 3.9 6-.4 1.6-1 3-1.3 3.1-.4 0-5 .2-10.2.5-10.8.5-12.5 1.6-13.3 8.9-.6 5.6-3.1 11.6-5.2 12.8-1.5.8-2.3.4-4.2-1.7-2-2.4-2.3-3.7-2.3-11.4.1-5.7.6-9.6 1.5-11.2.8-1.4 1.4-5.1 1.5-8.3 0-3.3.6-7.3 1.4-9 2.4-5.5 4.3-11.9 6.2-20.5 1.6-7.1 2.4-8.7 4.9-10.5 4.2-3.1 18-4.8 20.2-2.6zm-26.2 97.6c2 2.2 2.5 3.8 2.5 7.8.1 2.7.7 6.1 1.5 7.5 1.9 3.3 2 10 .2 10-2.7 0-4.4-3.7-7.2-14.9-2.3-9.4-2.5-11.5-1.4-12.2 1.8-1.1 1.5-1.3 4.4 1.8zM377 507.4c0 .8-.4 1.8-1 2.1-.5.3-1-.3-1-1.4 0-1.2.5-2.1 1-2.1.6 0 1 .6 1 1.4zm-91.3 190.3c.5 1.3-2.5 2.6-3.8 1.7-.6-.3-.5-1.1.2-2 1.3-1.6 3.1-1.4 3.6.3zM212 791.8c0 2-.5 5.3-1 7.2-.6 1.9-1.5 10.7-2.1 19.5-.9 13.9-1.4 16.7-3.6 21.2-2.9 5.9-12 16.6-13.4 15.7-1.3-.8-1.1-6.8.5-11.1 1.4-4 3.2-9.8 6.1-19.8 1-3.3 2.3-7.6 3-9.5.7-1.9 2-6.8 3-10.9.9-4.1 2.3-8.4 3.1-9.5.8-1.1 1.4-3 1.4-4.2 0-1.1.3-2.4.6-2.7 1.3-1.3 2.4.5 2.4 4.1zm-24 119.7c0 .8-.4 1.5-.9 1.5-1.3 0-2.2-1.6-1.4-2.4 1.1-1.1 2.3-.6 2.3.9zm30 62.8c0 1.5-4 4.1-4.8 3.1-.4-.4-.1-.9.6-1.1.6-.3 1.2-1.1 1.2-1.9 0-.8.7-1.4 1.5-1.4s1.5.6 1.5 1.3zm-44.5 32.6c.7 1.2-1.2 2.4-2.5 1.6-1.1-.7-.4-2.5 1-2.5.5 0 1.1.4 1.5.9z"/>
  <path d="M67.3 318.4c-2.2 2.7-4.7 16.9-4.2 22.6.5 4.2 3.5 5.5 4.3 1.8.3-1.3 1.2-5.3 2-8.9 1.8-7.2 2.1-16.5.7-17.4-.5-.3-1.8.6-2.8 1.9zM92.5 484.9c-4.1 1-7.3 2.8-11.5 6.4-5.8 5-6.2 6-4.4 10.3 2.1 4.9 13.4 15.9 19.2 18.6 2.4 1.2 4.6 2.7 4.9 3.4.2.7 2.3 2.3 4.6 3.5 2.3 1.1 5.7 3.4 7.5 5 1.8 1.6 4.5 2.9 6 2.9 1.5.1 3.8.7 5.2 1.5 6.5 3.7 22.4.3 40.9-8.8 12.8-6.3 15.5-10.3 14.4-21.2-1-10.4-3.9-13.6-7.2-8-2.4 4.2-4.9 4.9-12.1 3.6-8.8-1.5-32.3-9.6-40.3-13.8-1.5-.8-4-2.1-5.5-2.9-2.9-1.5-16.3-1.8-21.7-.5zM101.5 533c-.4.6-.3 1.6.3 2.2.6.6 1.2.6 1.7-.2.4-.6.3-1.6-.3-2.2-.6-.6-1.2-.6-1.7.2zM241.3 579.7c-3 2-2.9 3.8.3 6.6 1.5 1.2 3.3 3.7 4.1 5.5 1.6 3.9 3.9 5 6 3 1.1-1.1 1.2-2.1.5-3.4-.5-1.1-1.3-3.7-1.7-5.9-1.2-6.9-4.6-9.1-9.2-5.8zM127.5 583.3c-1.1.8-3 1.7-4.2 2.1-2.6.8-12.7 7.4-13.1 8.5-.9 2.6 3.8 3.2 32 4.1 16.1.5 32.2 1.5 35.7 2.1 5.6 1.1 6.5 1.6 7.3 4.1 1.4 4.1 3.4 4.7 10.3 3.6 4.2-.8 11.1-.8 23.5.1 24.3 1.6 25.7 1.5 27-.9 1.1-2.1 0-3.6-6.7-8.6-1.6-1.3-3.6-4.3-4.7-7.3l-1.8-5.1h-6.6c-5.3 0-7-.4-8.8-2.1-2.3-2.1-2.5-2.1-8.6-.6-10.5 2.6-23.8 3-40.8 1.3-25.8-2.5-38.2-2.9-40.5-1.3zM157.5 611.7c-6.5 1.9-13.1 3.6-23 5.8-4.4 1-8.4 2.2-8.8 2.5-1.4 1.3 4.3 4.9 8.6 5.5 5.2.8 11.7-.7 22.2-5.1 10.7-4.4 16.8-8.1 16-9.5-.9-1.4-9.3-.9-15 .8zM146.7 640.6c-1.6 1.6-.6 6.3 1.5 7.8s2.4 1.4 4.5-.6c1.2-1.3 2.4-3.4 2.5-4.8.3-2.3-.1-2.5-3.7-2.8-2.3-.2-4.4 0-4.8.4z"/>
</svg>
