<svg width="220" height="278" xmlns="http://www.w3.org/2000/svg">
  <g fill="#28282D" fill-rule="nonzero">
    <path d="M104.97.347c-1.805.174-2.915.52-4.407 1.353-1.805 1.007-2.22 1.11-4.511 1.041-3.956-.138-10.653 1.18-12.215 2.43-.451.346-2.255.728-4.372.902-4.407.347-6.003 1.04-6.767 2.845-.312.694-.729 1.145-1.11 1.145-1.18 0-2.221 1.006-1.978 1.943.139.52.07.833-.208.833-.209 0-.486-.312-.59-.694-.209-.833-.556-.867-1.145-.173-.486.59-1.944.694-2.256.173-.104-.208-1.041-.347-2.082-.347s-1.978.139-2.082.347c-.104.174-.555.347-.972.347-.416 0-1.527.625-2.498 1.388-.937.764-2.117 1.562-2.603 1.77-.486.208-1.11.486-1.388.66-.277.138-.798 1.005-1.11 1.908-.694 1.908-1.909 3.261-5.24 5.76-1.284.972-2.498 2.082-2.707 2.429-.173.347-.763.763-1.284.867-1.214.313-3.435 2.568-4.094 4.234-.313.694-1.041 2.36-1.666 3.713-1.25 2.706-1.908 4.441-2.186 5.725-.104.486-.312 1.007-.451 1.215-.174.173-.382.937-.52 1.63-.313 1.597.277 1.77 1.006.348.277-.52 1.04-1.527 1.7-2.221a94.889 94.889 0 0 0 2.533-2.95c2.603-3.192 4.789-5.482 5.83-6.176.59-.382 1.596-1.145 2.22-1.735 1.875-1.666 4.928-3.678 7.496-4.893 2.117-1.006 2.81-1.18 5.066-1.18 1.423 0 3.228.174 3.991.382.763.208 1.84.486 2.394.59 1.666.416 3.922 3.852 5.275 8.05.312 1.041 1.145 3.054 1.77 4.477.659 1.422 1.11 2.88 1.006 3.261-.07.382-.035.937.139 1.25.139.312.555 1.249.867 2.116 1.18 2.985 2.325 5.379 2.95 6.073.694.763 1.908 3.331 2.255 4.754.14.52.52 1.18.903 1.527.347.312.659.798.659 1.006 0 .243.312 1.11.694 1.943.382.833.694 2.048.694 2.672 0 .833.312 1.458 1.076 2.221.867.902 1.006 1.215.694 1.804-.174.417-.417 1.597-.556 2.672-.173 1.597-.104 2.013.313 2.152.312.139.555.416.555.624 0 .694-6.038-.069-11.451-1.422-.868-.209-2.117-.486-2.776-.59-.66-.104-1.388-.417-1.631-.694-.278-.382-.729-.486-1.492-.347-.903.208-1.041.104-1.041-.486 0-.625-.14-.694-1.631-.451-1.458.208-1.597.173-1.354-.382.208-.555.07-.59-1.04-.416-.764.139-1.632.034-2.187-.243-.486-.278-2.498-.59-4.442-.729-2.88-.208-3.851-.139-5.378.347-1.007.347-1.978.729-2.152.902-.208.174-.694.313-1.11.313-1.874 0-8.432 5.031-8.467 6.489 0 .832-1.596 1.283-4.789 1.283-3.019.035-3.296.105-3.921.868-.798.972-2.325 1.84-2.776 1.562-.59-.347-.312-.833.52-.833 1.146 0 1.562-1.597.66-2.464-1.007-.972-5.24-3.158-5.656-2.915-.209.139.277.833 1.214 1.7 1.492 1.423 1.943 2.29 1.215 2.29-.174 0-.347-.138-.347-.312 0-.173-.278-.416-.59-.52-.347-.139-1.145-.52-1.805-.868-.833-.45-2.047-.624-4.372-.694-2.846-.069-3.47.035-4.928.798-1.943.972-3.608 2.638-4.372 4.373-.902 2.012-1.735 5.899-1.492 7.01.104.59.07 1.248-.104 1.457-.451.59-.729 4.719-.382 6.28.174.764.555 3.089.868 5.205.659 4.303 2.463 9.89 3.886 12.25.555.832 1.18 1.908 1.423 2.394.694 1.25 1.492.867 2.602-1.25 1.18-2.22 3.61-5.586 4.026-5.586.624 0 5.135-5.032 6.975-7.738 1.04-1.562 2.602-3.54 3.47-4.407 1.735-1.735 4.164-6.142 4.164-7.6 0-1.18.486-1.908 1.11-1.7.347.139.625 1.458.937 4.477.694 6.766 1.11 9.716 1.388 10.34.174.313.66 1.492 1.076 2.637 2.707 7.392 6.42 12.007 11.798 14.679l2.568 1.284 5.76.034c3.158 0 6.073.14 6.49.278.52.173 1.214 0 2.081-.451.73-.382 1.736-.798 2.29-.902.521-.105.938-.417.938-.694 0-.243.277-.694.624-.937.313-.243.798-.868 1.007-1.423.242-.52.659-.937.971-.937.59 0 .729-.867.174-1.214-.174-.105-.347-.73-.347-1.388 0-.66-.14-1.284-.347-1.389-.209-.104-.347-.416-.347-.659 0-.277-.243-1.076-.556-1.804l-.555-1.319-.45.833c-.417.763-.487.798-.695.278-.139-.347.035-1.076.486-1.77.416-.66.625-1.458.52-1.874-.138-.416.035-1.11.347-1.561.313-.417.556-1.146.556-1.597 0-.416.208-.867.45-.971.348-.104.487-.798.452-2.221 0-1.11.07-2.117.173-2.22.105-.14.868.034 1.7.311 3.02 1.076 9.717.347 9.717-1.04 0-.59.729-.73 3.47-.799 1.909-.07 2.394.07 3.262.764.937.763 1.006.937.625 1.735-.313.728-.313.937.173 1.214.52.278.451.451-.486 1.319l-1.11 1.04.59 1.597c.555 1.492.52 1.63-.07 2.29-.624.694-.624.729.14 1.007.485.173 1.005.902 1.422 2.012.59 1.492.59 1.735.139 2.082-.694.52-.66.902.173 1.978.59.764.625.902.139 1.284-.278.243-.486.694-.451 1.006.139 1.354-.104 2.082-.902 2.95-1.145 1.25-1.11 1.63.173 1.353 1.215-.243 1.319.139.347 1.388-.382.486-.694 1.006-.694 1.215 0 .173-.382.728-.867 1.249-.556.59-.764 1.11-.625 1.527.208.52.173.52-.382.104-.416-.382-.694-.382-.971-.104-.278.277-.243.45.173.624.937.347.694 1.18-.798 2.95-1.457 1.735-1.666 2.255-.972 2.464.209.069.278.312.14.555-.174.312-.417.312-.938-.035-.555-.347-.728-.312-.971.07-.278.416-.486.416-1.423.034-.972-.416-1.145-.382-2.013.382-1.908 1.7-2.255 1.735-4.58.833-2.117-.833-2.117-.833-2.395-.104-.208.52-.624.728-1.943.832-1.318.104-1.943.382-2.81 1.215-.695.66-1.18.937-1.32.694-.138-.208-.624-.382-1.075-.382-.59 0-.867.208-.937.764-.104.763-.208.798-3.262.694l-3.157-.104-.209 1.318c-.138.729-.243 1.596-.243 1.909 0 .728 1.041.832 1.7.173.382-.347.452-.312.278.208-.138.382.035.868.451 1.284.382.382.694.902.694 1.145 0 .625 1.458 1.978 2.117 1.978.278 0 1.562.555 2.88 1.215 2.811 1.388 3.262 1.457 4.442.555.868-.694.868-.694 1.631.07.416.416.937 1.04 1.18 1.387.798 1.18 4.615 1.076 3.886-.069-.138-.278-.624-.347-1.249-.208-.763.173-1.006.104-1.006-.278 0-.59 2.637-2.012 3.296-1.77.66.278 1.007-.52.486-1.145-.416-.485-.312-.52.937-.312 1.284.243 1.458.174 1.7-.555l.278-.798.139.798c.07.416.451.971.833 1.214.347.209.659.764.659 1.18 0 .417.173.868.382 1.007.277.173.208.347-.174.555-.694.381-.729 2.325-.035 2.568.59.242.694 1.388.174 1.7-.52.312-.416.867.173.867.764 0 .625 1.145-.173 1.666-.382.243-.694.555-.694.763 0 .174-1.11 1.458-2.464 2.846-2.186 2.29-2.429 2.672-2.36 3.782.105 1.041-.104 1.458-1.18 2.499-.693.728-1.63 1.283-2.047 1.283-.45 0-1.11.243-1.457.521-.382.278-1.145.52-1.7.52-.972 0-1.007-.069-.799-1.075.174-.902.105-1.007-.242-.694-.278.208-.556.277-.694.173-.105-.104-.59.07-1.11.417-.625.416-1.007.485-1.25.243-.486-.486.347-1.84 1.11-1.84.347 0 .66-.381.764-.936.243-1.215.07-1.493-1.007-1.493-.45 0-.832-.173-.832-.347 0-.208-.243-.347-.52-.347-.626 0-.66.417-.105.972.312.312.104.416-1.041.416-1.25 0-1.527.14-1.804.868-.486 1.284.485 2.741 1.596 2.464.555-.14.937 0 1.318.555.764 1.04.694 1.318-.242 1.318-.452 0-1.11.313-1.423.66-.59.624-.59.694.104 1.388.798.798.971 2.117.277 2.117-.208 0-.936-.14-1.561-.313-.868-.277-1.215-.208-1.666.208-.45.486-.728.52-1.63.174-.938-.347-1.25-.312-2.464.416-1.319.798-3.123 2.221-4.893 3.852-1.076.972-3.158 2.013-3.574 1.77-.209-.104-.625.034-.937.347-.868.867-2.915 2.22-3.366 2.22-.243 0-.798.382-1.284.833-.833.799-1.041.833-3.158.59-1.735-.243-2.394-.173-2.81.174-.278.277-1.18.486-1.944.486-1.63 0-3.054.937-3.366 2.255-.139.486-.451.868-.729.868-.277 0-.659.277-.833.624-.485.937 1.874 2.915 4.06 3.366 1.32.312 1.631.486 1.562 1.041-.035.382-.173 1.631-.312 2.776l-.208 2.082.728-.728c.486-.452.833-1.32.972-2.499.243-2.117.694-2.602 2.255-2.429 1.354.139 1.7 1.11.833 2.43-.277.45-.624 1.804-.728 3.053-.313 3.053-2.117 10.583-3.852 15.962-.278.867-.486 2.013-.486 2.533 0 1.7.798.868 1.492-1.527.59-2.117 1.145-3.678 2.186-6.107.278-.59.486-1.284.486-1.562 0-.277.243-.798.52-1.18.278-.346.521-1.075.521-1.56 0-.938.833-2.36 1.18-2.014.347.347-.486 4.997-1.25 6.975-.381 1.007-.763 2.221-.867 2.707-.104.486-.312 1.006-.451 1.214-.139.174-.555 1.354-.868 2.603-.347 1.25-.832 2.498-1.11 2.81-.312.382-.416 1.007-.278 1.91.278 1.56-.659 4.06-1.873 5.135-.382.382-.73.867-.73 1.145s-.242.972-.554 1.527c-.625 1.249-.382 1.665.555 1.075.59-.381.694-.347.694.278 0 .382-.139.694-.278.694-.173 0-.659.798-1.11 1.77-.451.971-1.735 2.637-2.846 3.713-1.11 1.075-2.29 2.568-2.602 3.296-.451 1.007-.729 1.25-1.25 1.076-.381-.139-.798-.035-.971.243-.243.382-.382.347-.729-.139-.416-.59-.728-.382-3.435 2.43-3.644 3.781-5.344 4.857-8.016 4.996-1.11.07-2.013.035-2.013-.139v-.555c0-.174.833-.52 1.874-.729 1.909-.382 2.88-1.249 3.331-2.915.105-.381.66-.798 1.215-.971.798-.208 1.423-.902 2.637-2.776.868-1.388 1.874-3.262 2.186-4.13.833-2.29 1.32-2.81 2.811-3.053 1.18-.174 1.458-.417 2.221-1.874.694-1.388.798-1.874.52-2.95-.242-1.04-.485-1.318-1.214-1.388-.763-.104-1.11.174-1.909 1.458-.555.833-1.457 1.804-1.977 2.117-.521.312-2.013 1.492-3.297 2.637-1.978 1.77-2.464 2.047-3.262 1.839-.694-.139-1.25.035-1.874.52-.52.417-1.422.73-2.012.73h-1.076l1.145-.695c.625-.382 1.457-.694 1.84-.694a.927.927 0 0 0 .901-.694c.104-.382.417-.694.66-.694.277 0 .902-.486 1.422-1.076.556-.59 1.874-1.978 2.985-3.123 1.075-1.11 1.978-2.36 1.978-2.706 0-.382.381-1.076.867-1.562 1.215-1.214 1.11-1.735-.243-1.457-.624.104-1.77.312-2.533.416-1.284.174-3.921 1.319-4.338 1.874-.381.52-2.429 1.388-3.261 1.388-1.527 0-1.944.347-1.944 1.596 0 1.25-.208 1.596-3.366 5.934-1.006 1.353-1.839 2.672-1.839 2.915 0 .243-.243.694-.52 1.006-.833.937-3.297 5.9-4.026 8.155a120.804 120.804 0 0 1-1.7 4.684c-1.319 3.436-2.325 7.495-3.643 14.748-.625 3.4-.59 9.23.034 9.438.174.07.729-.937 1.18-2.186.729-2.082 1.18-2.706 4.511-6.003 3.193-3.158 3.783-3.956 4.442-5.795.416-1.145 1.388-3.262 2.151-4.684.764-1.423 1.735-3.228 2.152-4.06.624-1.215 1.006-1.527 2.186-1.84a44.236 44.236 0 0 0 2.984-.832c.902-.278 2.186-.52 2.846-.52.694 0 1.318-.14 1.457-.348.104-.173.694-.486 1.319-.66.624-.173 1.804-.624 2.672-.936.867-.347 2.568-.729 3.817-.868 1.249-.138 2.915-.347 3.678-.485 1.284-.243 1.492-.174 1.7.485.174.556-.034 1.215-.728 2.221-.52.798-6.35 6.906-13.013 13.603-6.628 6.662-13.88 14.158-16.067 16.656l-4.06 4.511 4.026.104 4.025.104 1.978-1.492c3.678-2.776 11.208-10.48 15.546-15.893 7.148-8.918 7.495-9.265 9.37-10.236.97-.486 2.983-1.076 4.51-1.319 3.678-.59 4.164-.902 10.966-7.565 2.533-2.463 4.407-4.615 4.962-5.69 1.318-2.499 1.665-3.089 2.186-3.401.208-.139.416-.59.416-.937 0-.798.347-.867 1.007-.243.381.347.416.208.208-.729-.174-.832-.104-1.145.312-1.318.313-.104.555-.486.555-.833s.243-.798.521-1.04c.278-.244.52-.73.52-1.077 0-1.006.625-.763.764.278l.139.972.45-1.041c.244-.59.348-1.458.244-1.978-.14-.625-.035-.937.208-.868.243.035.486-.243.555-.624.174-.903 1.25-3.297 2.533-5.76.798-1.597 1.007-2.395 1.007-4.165 0-1.214-.209-2.776-.451-3.435-.521-1.527-2.499-4.025-3.991-5.032-.625-.416-2.36-1.943-3.852-3.366-1.492-1.422-3.054-2.845-3.505-3.157-.45-.313-.728-.694-.59-.798.313-.347 2.603.902 3.332 1.804.312.382.798.833 1.11 1.041.694.382 4.997 4.13 6.107 5.31.452.45.799 1.005.799 1.214.034.52 1.596 2.29 2.082 2.29.173 0 .347.139.347.347 0 .347 1.77 2.082 2.151 2.082.243 0 2.394 2.082 3.435 3.331 1.423 1.735 5.934 5.656 6.628 5.76.382.07.903.382 1.11.694.278.486.174.799-.59 1.597-.52.52-.936 1.214-.936 1.526 0 .278-.382.937-.868 1.458-.485.52-.798 1.11-.694 1.284.243.381 1.458.416 1.7.034.209-.347 4.928-.277 6.212.07.764.243 1.041.59 1.354 1.804.381 1.319.555 1.527 1.353 1.527.52 0 1.11.208 1.318.486.556.66 3.02 1.943 3.713 1.943.313 0 .73.451.937 1.041.278.694.625 1.041 1.145 1.041.382 0 1.007.312 1.354.694.347.382 1.214.868 1.943 1.041 1.145.312 1.284.451 1.215 1.458-.035 1.11 0 1.11 1.284 1.006 1.145-.07 1.283 0 1.283.729.035 1.492 1.631 2.672 2.256 1.665.416-.694 1.562-.347 1.909.52.173.487.555.972.832 1.076.313.105.937.903 1.423 1.735.555.903 1.353 1.735 2.013 2.013 1.388.59 2.845 1.978 3.574 3.366.347.694.694 1.006 1.041.867.312-.104.59-.208.66-.208.034 0 1.04-1.249 2.22-2.776 1.18-1.527 2.29-2.776 2.43-2.776.138 0 .416.174.624.382.208.208.66.312 1.006.243.625-.104.625-.174-.104-.764-.729-.624-.729-.728-.208-1.735.59-1.11 1.874-2.325 2.22-2.082.14.07.348.73.486 1.423.14.729.521 1.492.903 1.77.347.243.659.763.659 1.11 0 .694 1.215 1.735 2.047 1.735.278 0 1.11.417 1.805.902l1.284.868 2.047-1.041c3.123-1.562 4.372-1.7 5.795-.59.66.486 1.423.902 1.7.902 1.388 0 2.221 2.915 1.11 3.817-.901.729-.069 1.076 1.736.729 1.11-.208 2.325-.174 3.505.07 2.255.45 3.504 0 5.69-2.187 1.146-1.075 1.701-1.978 1.874-2.845.209-1.076.417-1.353 1.18-1.492 2.048-.417 2.672-.729 3.02-1.492.207-.451.659-.764 1.11-.764.416 0 1.145-.381 1.63-.867.486-.486 1.146-.868 1.493-.868.347 0 .937-.243 1.284-.52.381-.278 1.214-.52 1.839-.52.624 0 2.151-.383 3.435-.868 1.388-.52 3.089-.868 4.268-.903 1.076 0 2.499-.208 3.158-.45.972-.382 1.215-.625 1.145-1.354-.034-.694.174-.972 1.007-1.25 1.457-.52 3.817-.485 4.58.07 1.215.902-.243 2.915-5.621 7.738-1.354 1.18-1.388 2.117-.07 3.505.66.729.764.729 2.43.243.936-.278 2.498-.902 3.435-1.353 2.567-1.319 2.81-1.18 2.116 1.18-.173.659-.277 1.249-.208 1.353.07.07.625-.139 1.215-.417 1.353-.728 1.422-.694 1.422.313 0 1.318.417 1.075 1.944-1.076.728-1.041 1.561-2.151 1.804-2.394.208-.243.417-.694.417-.972 0-.277.208-.59.45-.66.799-.311 1.285.105 1.285 1.111 0 1.25.832 2.152 1.7 1.805.382-.14 1.11-.798 1.666-1.492.52-.66 1.839-2.082 2.914-3.123 2.43-2.36 3.366-4.859 2.846-7.6-.208-.937-.278-1.804-.174-1.874.07-.104 1.388.59 2.915 1.562 1.527.937 3.089 1.7 3.47 1.7 1.11 0 2.464-1.7 2.742-3.47.104-.867.416-2.741.659-4.164.66-4.06.243-8.224-1.562-15.615-.312-1.25-.659-2.984-.763-3.921l-.208-1.631h1.25c.693 0 1.352.173 1.457.347.277.451 1.561.451 1.561 0 0-.208-.243-.347-.52-.347-.59 0-2.985-2.29-4.373-4.164-.486-.66-1.18-2.082-1.527-3.123-.381-1.041-.902-2.29-1.214-2.776-.833-1.319-1.735-3.436-1.735-4.025 0-.278-.312-1.11-.66-1.805-2.845-5.517-3.365-7.495-2.394-9.057.312-.52.243-.867-.312-1.804-.66-1.076-.694-1.7-.66-6.767.035-4.823.105-5.725.66-6.28.312-.382.486-.764.382-.903-.105-.104.138-.347.52-.59.868-.45 1.006-2.463.208-3.123-.694-.555-.659-1.63.035-2.012.312-.174.694-.937.833-1.666.139-.728.382-1.63.52-1.978.14-.347.104-.59-.104-.59s-.416.243-.486.52c-.069.348-.277.417-.59.21-.728-.452-.208-2.118.66-2.118.66 0 .694-.242.694-3.782 0-2.325-.139-3.886-.382-4.025-.243-.174-.312.66-.243 2.637.07 1.874-.035 2.88-.277 2.984-.556.208-.764-1.284-.556-4.129.14-2.013.278-2.464.833-2.637.555-.14.625-.451.52-2.152-.069-1.11-.312-2.255-.555-2.568-.347-.416-.381-.763-.138-1.353.416-.902.034-5.968-.52-7.044-.625-1.214-1.18-3.088-1.493-4.823a310.55 310.55 0 0 0-.798-4.338c-.937-4.789-1.25-6.732-1.805-11.277-.624-5.24-.971-7.739-1.526-11.105-.243-1.353-.486-3.053-.52-3.817-.174-1.804-1.042-6.003-1.458-7.113-.208-.486-.486-1.805-.625-2.95-.139-1.145-.382-2.36-.555-2.672-.312-.59-.868-2.463-2.221-7.738-.833-3.227-4.72-15.164-5.517-17.003-.799-1.735-2.568-6.524-2.915-7.808-.868-3.123-5.24-12.7-6.49-14.227-.242-.277-.763-1.145-1.18-1.908-2.116-3.99-7.98-11.451-11.103-14.227-.66-.556-1.978-1.735-2.95-2.603-2.845-2.533-7.079-5.656-10.618-7.807-3.401-2.082-9.925-5.379-10.654-5.379-.208 0-1.63-.451-3.123-.972-4.754-1.735-5.309-1.873-8.883-2.012-1.909-.104-3.644-.278-3.852-.451-.208-.14-1.978-.382-3.921-.52-1.943-.105-3.956-.382-4.442-.556-.486-.208-2.325-.347-4.025-.347-1.735 0-3.852-.173-4.754-.382-.902-.173-2.325-.52-3.192-.728-2.325-.52-2.395-.52-5.032-.278zM68.638 23.874c.07.243-.104.416-.416.416a.548.548 0 0 1-.555-.555c0-.59.763-.486.971.139zm-27.344 7.183c0 .277-.139.52-.347.52-.174 0-.347-.243-.347-.52 0-.278.173-.52.347-.52.208 0 .347.242.347.52zm38.518 7.426c0 .138.555 1.006 1.214 1.839.66.867 2.152 3.192 3.366 5.17 1.18 1.978 2.29 3.748 2.464 3.956.139.173 1.041 1.527 1.943 2.95a602.68 602.68 0 0 1 4.06 6.246c1.319 2.012 2.707 4.337 3.089 5.205.381.867.971 1.943 1.318 2.429.313.45.59 1.04.59 1.284 0 .242.174.45.347.45.208 0 .347.244.347.556 0 .416-.277.277-1.04-.451-.556-.52-1.042-1.145-1.042-1.388 0-.243-.312-.59-.694-.798-.382-.209-.694-.556-.694-.799 0-.242-.45-.902-.971-1.457-.521-.59-1.562-2.013-2.29-3.227-.695-1.18-1.389-2.151-1.528-2.151-.208 0-.936-1.146-3.157-4.997-.451-.764-1.492-2.29-2.325-3.4-.833-1.077-1.527-2.118-1.527-2.291 0-.174-.451-.937-.972-1.666-1.249-1.735-2.88-5.066-3.435-7.079-.555-2.116-.555-2.186.243-1.388.382.382.694.833.694 1.007zm5.795 2.012c.277.208.451.694.382 1.041-.105.486-.243.347-.73-.555-.311-.66-.59-1.353-.554-1.561 0-.209.104-.14.208.138s.416.694.694.937zm3.921 6.767c0 1.04-.52.694-1.145-.694-.868-1.943-.729-2.464.278-1.11.485.659.867 1.457.867 1.804zm-40.6 24.602c0 .174-.208.313-.451.313-.625 0-1.7 2.186-1.84 3.713-.069.728-.207 2.22-.346 3.33-.139 1.528-.07 2.187.347 2.846.486.729.694.798 1.25.52.52-.277.728-.207 1.04.382.555.972.174 1.77-.763 1.666a3.72 3.72 0 0 0-1.423.208c-.902.382-2.325-.347-2.325-1.214 0-.382-.173-.694-.382-.694-.208 0-.312.277-.208.66.07.38-.173 1.075-.66 1.63-.45.555-.797 1.457-.832 1.978 0 1.284-1.041 2.88-1.423 2.255-.416-.624-.381-4.337.07-6.003.208-.763.485-2.116.659-2.984.139-.867.625-2.117 1.041-2.776l.763-1.18-.208 1.458c-.104.832-.07 1.526.139 1.665.173.104.347.59.347 1.041 0 1.11.625 1.458.833.451.555-2.776 1.249-6.836 1.318-7.564.07-.486.452-1.007.903-1.25.45-.208 1.006-.59 1.18-.763.416-.416.971-.243.971.312zM20.82 75.89c0 .312-.416 1.04-.936 1.561-.66.694-1.007 1.527-1.18 2.81-.14.972-.382 2.534-.52 3.436-.278 1.978.173 2.707 1.665 2.707.937 0 1.006.07.902 1.11l-.104 1.145h-2.533c-2.152 0-2.637.104-3.054.694-.277.382-.486 1.007-.451 1.388.035.382-.104 1.076-.312 1.562a22.626 22.626 0 0 0-.555 1.457c-.278.937-1.146.764-1.7-.347-.521-1.04-.417-5.135.138-5.482.173-.105.312-.972.312-1.909 0-.972.208-2.082.417-2.498.52-.903 1.318-3.713 1.561-5.518.243-1.874 1.458-2.498 5.067-2.672 1.006-.034 1.283.104 1.283.556zm-6.87 23.457c.555.555.763 1.11.694 1.874-.07.624.139 1.561.416 2.151.764 1.458.729 2.464-.104 2.464-.729 0-1.423-1.527-1.423-3.088 0-.52-.138-1.076-.312-1.284-.451-.451-.625-2.915-.208-2.915.07 0 .486.347.937.798zm78.701 24.429c0 .347-.694 1.388-.694 1.076 0-.104-.104-.451-.208-.764-.139-.381-.035-.555.347-.555.312 0 .555.104.555.243zm-4.511 19.71c0 .277-.139.52-.347.52-.173 0-.347-.243-.347-.52 0-.278.174-.52.347-.52.208 0 .347.242.347.52zm-17.697 26.858c0 .416-1.007.798-1.423.52a.392.392 0 0 1-.139-.52c.278-.417 1.562-.417 1.562 0zM52.19 192.795c.139.312.07.763-.104.972-.278.312-1.076 8.12-1.076 10.444 0 .833-3.47 5.414-3.886 5.17-.417-.277-.313-1.734.208-3.157.243-.729.694-2.186 1.006-3.227.313-1.041.868-2.915 1.284-4.13.382-1.249.694-2.567.694-2.949 0-.416.243-1.041.52-1.388.278-.382.521-1.041.521-1.492 0-.937.52-1.076.833-.243zm-5.69 29.773c0 .52-.626 1.076-.903.798-.243-.243.243-1.284.59-1.284.173 0 .312.208.312.486zm6.627 16.274c-1.006 1.041-1.353.417-.347-.659.486-.52.867-.694.937-.486.104.243-.174.729-.59 1.145zM9.3 242.625c-.104.243-.52.485-1.007.555-.798.07-.798.07-.173-.451.833-.625 1.353-.694 1.18-.104zm33.764 3.574c0 .208-.347.416-.798.45-.66.14-.694.07-.313-.416.52-.59 1.145-.624 1.11-.034z"/>
    <path d="M16.583 77.694c-.728 1.562-1.145 4.754-.798 6.524l.243 1.318.486-1.388c.798-2.29 1.215-5.205.937-6.489l-.278-1.214-.59 1.249zm-2.776 6.454c.07.486.209.868.278.868.07 0 .139-.382.139-.868s-.139-.867-.312-.867c-.14 0-.209.381-.105.867zm7.877 34.596c-.381.209-1.283.937-1.977 1.597l-1.284 1.214.867 1.596c.764 1.458 4.06 4.2 4.997 4.2.173 0 .486.311.694.693.208.382.625.694.972.694.312 0 1.04.486 1.596 1.041.555.59 1.249 1.041 1.561.972.313-.035 1.076.104 1.666.381.625.243 1.561.382 2.082.278.555-.104 1.839-.382 2.88-.555 1.874-.347 6.142-2.36 7.426-3.47 1.076-.937 1.284-1.978.833-4.407-.417-2.186-1.076-2.88-1.492-1.562-.417 1.354-1.284 1.77-2.95 1.388-.867-.208-1.874-.485-2.255-.624-1.493-.59-3.228-1.18-5.379-1.84-1.25-.381-2.568-1.006-2.984-1.353-.59-.555-1.215-.659-3.644-.659-1.596 0-3.227.208-3.609.416zm3.332 11.903c.034 1.388.034 1.388.381.416.243-.729.243-1.11-.034-1.388-.278-.278-.382 0-.347.972zm34.04 11c-.659.659-.485 1.214.59 1.978.73.52.972.937.833 1.422-.138.52 0 .694.556.694.867 0 1.318-.832.798-1.492-.209-.208-.417-.971-.486-1.63-.07-1.007-.243-1.25-.972-1.32-.486-.069-1.075.105-1.318.348zm-27.482.832c-.243.243-.729.486-1.076.486-.347 0-.902.278-1.249.66-.347.347-.972.763-1.388.867-.833.278-1.11 1.215-.347 1.284.208.035 3.782.174 7.877.312 9.196.347 10.202.52 10.34 1.84.105.902.209.971 1.146.763 1.353-.312 4.546-.312 9.404 0 2.776.173 4.094.139 4.233-.139.312-.486-.382-1.77-.972-1.77-.728 0-1.873-1.492-2.012-2.602-.104-1.041-.104-1.041-2.082-.937-1.562.07-2.013-.035-2.013-.417 0-.832-.59-.971-1.665-.416-.556.278-1.805.52-2.776.486-.972 0-1.909.104-2.082.208-.174.104-2.811-.035-5.83-.278-3.054-.242-5.76-.485-6.038-.485-.278 0-1.11-.07-1.804-.174-.868-.139-1.388-.035-1.666.312zm8.328 6.732c-1.561.486-5.344 1.423-7.391 1.805-1.11.208-1.943.52-1.874.728.035.174.798.59 1.631.903 1.457.555 1.666.555 3.47-.035 3.921-1.284 7.495-3.054 6.87-3.435-.554-.347-1.526-.347-2.706.034zm-4.164 7.947c0 .694.833 1.77 1.388 1.77.243 0 1.388-1.91 1.388-2.325 0-.035-.625-.105-1.388-.105-1.145 0-1.388.105-1.388.66z"/>
  </g>
</svg>
