
<svg width="634px" height="802px" viewBox="0 0 634 802" version="1.1" xmlns="http://www.w3.org/2000/svg" xmlns:xlink="http://www.w3.org/1999/xlink">
    <!-- Generator: Sketch 49.2 (51160) - http://www.bohemiancoding.com/sketch -->
    <desc>Created with Sketch.</desc>
    <defs></defs>
    <g id="Page-1" stroke="none" stroke-width="1" fill="none" fill-rule="evenodd">
        <g id="annie-2" fill="#28282D" fill-rule="nonzero">
            <g id="Group" transform="translate(317.100000, 400.600000) scale(-1, 1) rotate(-180.000000) translate(-317.100000, -400.600000) translate(0.100000, 0.100000)">
                <path d="M302.4,800.1 C297.2,799.6 294,798.6 289.7,796.2 C284.5,793.3 283.3,793 276.7,793.2 C265.3,793.6 246,789.8 241.5,786.2 C240.2,785.2 235,784.1 228.9,783.6 C216.2,782.6 211.6,780.6 209.4,775.4 C208.5,773.4 207.3,772.1 206.2,772.1 C202.8,772.1 199.8,769.2 200.5,766.5 C200.9,765 200.7,764.1 199.9,764.1 C199.3,764.1 198.5,765 198.2,766.1 C197.6,768.5 196.6,768.6 194.9,766.6 C193.5,764.9 189.3,764.6 188.4,766.1 C188.1,766.7 185.4,767.1 182.4,767.1 C179.4,767.1 176.7,766.7 176.4,766.1 C176.1,765.6 174.8,765.1 173.6,765.1 C172.4,765.1 169.2,763.3 166.4,761.1 C163.7,758.9 160.3,756.6 158.9,756 C157.5,755.4 155.7,754.6 154.9,754.1 C154.1,753.7 152.6,751.2 151.7,748.6 C149.7,743.1 146.2,739.2 136.6,732 C132.9,729.2 129.4,726 128.8,725 C128.3,724 126.6,722.8 125.1,722.5 C121.6,721.6 115.2,715.1 113.3,710.3 C112.4,708.3 110.3,703.5 108.5,699.6 C104.9,691.8 103,686.8 102.2,683.1 C101.9,681.7 101.3,680.2 100.9,679.6 C100.4,679.1 99.8,676.9 99.4,674.9 C98.5,670.3 100.2,669.8 102.3,673.9 C103.1,675.4 105.3,678.3 107.2,680.3 C109,682.3 112.3,686.1 114.5,688.8 C122,698 128.3,704.6 131.3,706.6 C133,707.7 135.9,709.9 137.7,711.6 C143.1,716.4 151.9,722.2 159.3,725.7 C165.4,728.6 167.4,729.1 173.9,729.1 C178,729.1 183.2,728.6 185.4,728 C187.6,727.4 190.7,726.6 192.3,726.3 C197.1,725.1 203.6,715.2 207.5,703.1 C208.4,700.1 210.8,694.3 212.6,690.2 C214.5,686.1 215.8,681.9 215.5,680.8 C215.3,679.7 215.4,678.1 215.9,677.2 C216.3,676.3 217.5,673.6 218.4,671.1 C221.8,662.5 225.1,655.6 226.9,653.6 C228.9,651.4 232.4,644 233.4,639.9 C233.8,638.4 234.9,636.5 236,635.5 C237,634.6 237.9,633.2 237.9,632.6 C237.9,631.9 238.8,629.4 239.9,627 C241,624.6 241.9,621.1 241.9,619.3 C241.9,616.9 242.8,615.1 245,612.9 C247.5,610.3 247.9,609.4 247,607.7 C246.5,606.5 245.8,603.1 245.4,600 C244.9,595.4 245.1,594.2 246.3,593.8 C247.2,593.4 247.9,592.6 247.9,592 C247.9,590 230.5,592.2 214.9,596.1 C212.4,596.7 208.8,597.5 206.9,597.8 C205,598.1 202.9,599 202.2,599.8 C201.4,600.9 200.1,601.2 197.9,600.8 C195.3,600.2 194.9,600.5 194.9,602.2 C194.9,604 194.5,604.2 190.2,603.5 C186,602.9 185.6,603 186.3,604.6 C186.9,606.2 186.5,606.3 183.3,605.8 C181.1,605.4 178.6,605.7 177,606.5 C175.6,607.3 169.8,608.2 164.2,608.6 C155.9,609.2 153.1,609 148.7,607.6 C145.8,606.6 143,605.5 142.5,605 C141.9,604.5 140.5,604.1 139.3,604.1 C133.9,604.1 115,589.6 114.9,585.4 C114.9,583 110.3,581.7 101.1,581.7 C92.4,581.6 91.6,581.4 89.8,579.2 C87.5,576.4 83.1,573.9 81.8,574.7 C80.1,575.7 80.9,577.1 83.3,577.1 C86.6,577.1 87.8,581.7 85.2,584.2 C82.3,587 70.1,593.3 68.9,592.6 C68.3,592.2 69.7,590.2 72.4,587.7 C76.7,583.6 78,581.1 75.9,581.1 C75.4,581.1 74.9,581.5 74.9,582 C74.9,582.5 74.1,583.2 73.2,583.5 C72.2,583.9 69.9,585 68,586 C65.6,587.3 62.1,587.8 55.4,588 C47.2,588.2 45.4,587.9 41.2,585.7 C35.6,582.9 30.8,578.1 28.6,573.1 C26,567.3 23.6,556.1 24.3,552.9 C24.6,551.2 24.5,549.3 24,548.7 C22.7,547 21.9,535.1 22.9,530.6 C23.4,528.4 24.5,521.7 25.4,515.6 C27.3,503.2 32.5,487.1 36.6,480.3 C38.2,477.9 40,474.8 40.7,473.4 C42.7,469.8 45,470.9 48.2,477 C51.6,483.4 58.6,493.1 59.8,493.1 C61.6,493.1 74.6,507.6 79.9,515.4 C82.9,519.9 87.4,525.6 89.9,528.1 C94.9,533.1 101.9,545.8 101.9,550 C101.9,553.4 103.3,555.5 105.1,554.9 C106.1,554.5 106.9,550.7 107.8,542 C109.8,522.5 111,514 111.8,512.2 C112.3,511.3 113.7,507.9 114.9,504.6 C122.7,483.3 133.4,470 148.9,462.3 L156.3,458.6 L172.9,458.5 C182,458.5 190.4,458.1 191.6,457.7 C193.1,457.2 195.1,457.7 197.6,459 C199.7,460.1 202.6,461.3 204.2,461.6 C205.7,461.9 206.9,462.8 206.9,463.6 C206.9,464.3 207.7,465.6 208.7,466.3 C209.6,467 211,468.8 211.6,470.4 C212.3,471.9 213.5,473.1 214.4,473.1 C216.1,473.1 216.5,475.6 214.9,476.6 C214.4,476.9 213.9,478.7 213.9,480.6 C213.9,482.5 213.5,484.3 212.9,484.6 C212.3,484.9 211.9,485.8 211.9,486.5 C211.9,487.3 211.2,489.6 210.3,491.7 L208.7,495.5 L207.4,493.1 C206.2,490.9 206,490.8 205.4,492.3 C205,493.3 205.5,495.4 206.8,497.4 C208,499.3 208.6,501.6 208.3,502.8 C207.9,504 208.4,506 209.3,507.3 C210.2,508.5 210.9,510.6 210.9,511.9 C210.9,513.1 211.5,514.4 212.2,514.7 C213.2,515 213.6,517 213.5,521.1 C213.5,524.3 213.7,527.2 214,527.5 C214.3,527.9 216.5,527.4 218.9,526.6 C227.6,523.5 246.9,525.6 246.9,529.6 C246.9,531.3 249,531.7 256.9,531.9 C262.4,532.1 263.8,531.7 266.3,529.7 C269,527.5 269.2,527 268.1,524.7 C267.2,522.6 267.2,522 268.6,521.2 C270.1,520.4 269.9,519.9 267.2,517.4 L264,514.4 L265.7,509.8 C267.3,505.5 267.2,505.1 265.5,503.2 C263.7,501.2 263.7,501.1 265.9,500.3 C267.3,499.8 268.8,497.7 270,494.5 C271.7,490.2 271.7,489.5 270.4,488.5 C268.4,487 268.5,485.9 270.9,482.8 C272.6,480.6 272.7,480.2 271.3,479.1 C270.5,478.4 269.9,477.1 270,476.2 C270.4,472.3 269.7,470.2 267.4,467.7 C264.1,464.1 264.2,463 267.9,463.8 C271.4,464.5 271.7,463.4 268.9,459.8 C267.8,458.4 266.9,456.9 266.9,456.3 C266.9,455.8 265.8,454.2 264.4,452.7 C262.8,451 262.2,449.5 262.6,448.3 C263.2,446.8 263.1,446.8 261.5,448 C260.3,449.1 259.5,449.1 258.7,448.3 C257.9,447.5 258,447 259.2,446.5 C261.9,445.5 261.2,443.1 256.9,438 C252.7,433 252.1,431.5 254.1,430.9 C254.7,430.7 254.9,430 254.5,429.3 C254,428.4 253.3,428.4 251.8,429.4 C250.2,430.4 249.7,430.3 249,429.2 C248.2,428 247.6,428 244.9,429.1 C242.1,430.3 241.6,430.2 239.1,428 C233.6,423.1 232.6,423 225.9,425.6 C219.8,428 219.8,428 219,425.9 C218.4,424.4 217.2,423.8 213.4,423.5 C209.6,423.2 207.8,422.4 205.3,420 C203.3,418.1 201.9,417.3 201.5,418 C201.1,418.6 199.7,419.1 198.4,419.1 C196.7,419.1 195.9,418.5 195.7,416.9 C195.4,414.7 195.1,414.6 186.3,414.9 L177.2,415.2 L176.6,411.4 C176.2,409.3 175.9,406.8 175.9,405.9 C175.9,403.8 178.9,403.5 180.8,405.4 C181.9,406.4 182.1,406.3 181.6,404.8 C181.2,403.7 181.7,402.3 182.9,401.1 C184,400 184.9,398.5 184.9,397.8 C184.9,396 189.1,392.1 191,392.1 C191.8,392.1 195.5,390.5 199.3,388.6 C207.4,384.6 208.7,384.4 212.1,387 C214.6,389 214.6,389 216.8,386.8 C218,385.6 219.5,383.8 220.2,382.8 C222.5,379.4 233.5,379.7 231.4,383 C231,383.8 229.6,384 227.8,383.6 C225.6,383.1 224.9,383.3 224.9,384.4 C224.9,386.1 232.5,390.2 234.4,389.5 C236.3,388.7 237.3,391 235.8,392.8 C234.6,394.2 234.9,394.3 238.5,393.7 C242.2,393 242.7,393.2 243.4,395.3 L244.2,397.6 L244.6,395.3 C244.8,394.1 245.9,392.5 247,391.8 C248,391.2 248.9,389.6 248.9,388.4 C248.9,387.2 249.4,385.9 250,385.5 C250.8,385 250.6,384.5 249.5,383.9 C247.5,382.8 247.4,377.2 249.4,376.5 C251.1,375.8 251.4,372.5 249.9,371.6 C248.4,370.7 248.7,369.1 250.4,369.1 C252.6,369.1 252.2,365.8 249.9,364.3 C248.8,363.6 247.9,362.7 247.9,362.1 C247.9,361.6 244.7,357.9 240.8,353.9 C234.5,347.3 233.8,346.2 234,343 C234.3,340 233.7,338.8 230.6,335.8 C228.6,333.7 225.9,332.1 224.7,332.1 C223.4,332.1 221.5,331.4 220.5,330.6 C219.4,329.8 217.2,329.1 215.6,329.1 C212.8,329.1 212.7,329.3 213.3,332.2 C213.8,334.8 213.6,335.1 212.6,334.2 C211.8,333.6 211,333.4 210.6,333.7 C210.3,334 208.9,333.5 207.4,332.5 C205.6,331.3 204.5,331.1 203.8,331.8 C202.4,333.2 204.8,337.1 207,337.1 C208,337.1 208.9,338.2 209.2,339.8 C209.9,343.3 209.4,344.1 206.3,344.1 C205,344.1 203.9,344.6 203.9,345.1 C203.9,345.7 203.2,346.1 202.4,346.1 C200.6,346.1 200.5,344.9 202.1,343.3 C203,342.4 202.4,342.1 199.1,342.1 C195.5,342.1 194.7,341.7 193.9,339.6 C192.5,335.9 195.3,331.7 198.5,332.5 C200.1,332.9 201.2,332.5 202.3,330.9 C204.5,327.9 204.3,327.1 201.6,327.1 C200.3,327.1 198.4,326.2 197.5,325.2 C195.8,323.4 195.8,323.2 197.8,321.2 C200.1,318.9 200.6,315.1 198.6,315.1 C198,315.1 195.9,315.5 194.1,316 C191.6,316.8 190.6,316.6 189.3,315.4 C188,314 187.2,313.9 184.6,314.9 C181.9,315.9 181,315.8 177.5,313.7 C173.7,311.4 168.5,307.3 163.4,302.6 C160.3,299.8 154.3,296.8 153.1,297.5 C152.5,297.8 151.3,297.4 150.4,296.5 C147.9,294 142,290.1 140.7,290.1 C140,290.1 138.4,289 137,287.7 C134.6,285.4 134,285.3 127.9,286 C122.9,286.7 121,286.5 119.8,285.5 C119,284.7 116.4,284.1 114.2,284.1 C109.5,284.1 105.4,281.4 104.5,277.6 C104.1,276.2 103.2,275.1 102.4,275.1 C101.6,275.1 100.5,274.3 100,273.3 C98.6,270.6 105.4,264.9 111.7,263.6 C115.5,262.7 116.4,262.2 116.2,260.6 C116.1,259.5 115.7,255.9 115.3,252.6 L114.7,246.6 L116.8,248.7 C118.2,250 119.2,252.5 119.6,255.9 C120.3,262 121.6,263.4 126.1,262.9 C130,262.5 131,259.7 128.5,255.9 C127.7,254.6 126.7,250.7 126.4,247.1 C125.5,238.3 120.3,216.6 115.3,201.1 C114.5,198.6 113.9,195.3 113.9,193.8 C113.9,188.9 116.2,191.3 118.2,198.2 C119.9,204.3 121.5,208.8 124.5,215.8 C125.3,217.5 125.9,219.5 125.9,220.3 C125.9,221.1 126.6,222.6 127.4,223.7 C128.2,224.7 128.9,226.8 128.9,228.2 C128.9,230.9 131.3,235 132.3,234 C133.3,233 130.9,219.6 128.7,213.9 C127.6,211 126.5,207.5 126.2,206.1 C125.9,204.7 125.3,203.2 124.9,202.6 C124.5,202.1 123.3,198.7 122.4,195.1 C121.4,191.5 120,187.9 119.2,187 C118.3,185.9 118,184.1 118.4,181.5 C119.2,177 116.5,169.8 113,166.7 C111.9,165.6 110.9,164.2 110.9,163.4 C110.9,162.6 110.2,160.6 109.3,159 C107.5,155.4 108.2,154.2 110.9,155.9 C112.6,157 112.9,156.9 112.9,155.1 C112.9,154 112.5,153.1 112.1,153.1 C111.6,153.1 110.2,150.8 108.9,148 C107.6,145.2 103.9,140.4 100.7,137.3 C97.5,134.2 94.1,129.9 93.2,127.8 C91.9,124.9 91.1,124.2 89.6,124.7 C88.5,125.1 87.3,124.8 86.8,124 C86.1,122.9 85.7,123 84.7,124.4 C83.5,126.1 82.6,125.5 74.8,117.4 C64.3,106.5 59.4,103.4 51.7,103 C48.5,102.8 45.9,102.9 45.9,103.4 C45.9,103.8 45.9,104.5 45.9,105 C45.9,105.5 48.3,106.5 51.3,107.1 C56.8,108.2 59.6,110.7 60.9,115.5 C61.2,116.6 62.8,117.8 64.4,118.3 C66.7,118.9 68.5,120.9 72,126.3 C74.5,130.3 77.4,135.7 78.3,138.2 C80.7,144.8 82.1,146.3 86.4,147 C89.8,147.5 90.6,148.2 92.8,152.4 C94.8,156.4 95.1,157.8 94.3,160.9 C93.6,163.9 92.9,164.7 90.8,164.9 C88.6,165.2 87.6,164.4 85.3,160.7 C83.7,158.3 81.1,155.5 79.6,154.6 C78.1,153.7 73.8,150.3 70.1,147 C64.4,141.9 63,141.1 60.7,141.7 C58.7,142.1 57.1,141.6 55.3,140.2 C53.8,139 51.2,138.1 49.5,138.1 L46.4,138.1 L49.7,140.1 C51.5,141.2 53.9,142.1 55,142.1 C56.2,142.1 57.3,142.9 57.6,144.1 C57.9,145.2 58.8,146.1 59.5,146.1 C60.3,146.1 62.1,147.5 63.6,149.2 C65.2,150.9 69,154.9 72.2,158.2 C75.3,161.4 77.9,165 77.9,166 C77.9,167.1 79,169.1 80.4,170.5 C83.9,174 83.6,175.5 79.7,174.7 C77.9,174.4 74.6,173.8 72.4,173.5 C68.7,173 61.1,169.7 59.9,168.1 C58.8,166.6 52.9,164.1 50.5,164.1 C46.1,164.1 44.9,163.1 44.9,159.5 C44.9,155.9 44.3,154.9 35.2,142.4 C32.3,138.5 29.9,134.7 29.9,134 C29.9,133.3 29.2,132 28.4,131.1 C26,128.4 18.9,114.1 16.8,107.6 C15.7,104.3 13.5,98.2 11.9,94.1 C8.1,84.2 5.2,72.5 1.4,51.6 C-0.4,41.8 -0.3,25 1.5,24.4 C2,24.2 3.6,27.1 4.9,30.7 C7,36.7 8.3,38.5 17.9,48 C27.1,57.1 28.8,59.4 30.7,64.7 C31.9,68 34.7,74.1 36.9,78.2 C39.1,82.3 41.9,87.5 43.1,89.9 C44.9,93.4 46,94.3 49.4,95.2 C51.6,95.7 55.5,96.8 58,97.6 C60.6,98.4 64.3,99.1 66.2,99.1 C68.2,99.1 70,99.5 70.4,100.1 C70.7,100.6 72.4,101.5 74.2,102 C76,102.5 79.4,103.8 81.9,104.7 C84.4,105.7 89.3,106.8 92.9,107.2 C96.5,107.6 101.3,108.2 103.5,108.6 C107.2,109.3 107.8,109.1 108.4,107.2 C108.9,105.6 108.3,103.7 106.3,100.8 C104.8,98.5 88,80.9 68.8,61.6 C49.7,42.4 28.8,20.8 22.5,13.6 L10.8,0.6 L22.4,0.3 L34,0 L39.7,4.3 C50.3,12.3 72,34.5 84.5,50.1 C105.1,75.8 106.1,76.8 111.5,79.6 C114.3,81 120.1,82.7 124.5,83.4 C135.1,85.1 136.5,86 156.1,105.2 C163.4,112.3 168.8,118.5 170.4,121.6 C174.2,128.8 175.2,130.5 176.7,131.4 C177.3,131.8 177.9,133.1 177.9,134.1 C177.9,136.4 178.9,136.6 180.8,134.8 C181.9,133.8 182,134.2 181.4,136.9 C180.9,139.3 181.1,140.2 182.3,140.7 C183.2,141 183.9,142.1 183.9,143.1 C183.9,144.1 184.6,145.4 185.4,146.1 C186.2,146.8 186.9,148.2 186.9,149.2 C186.9,152.1 188.7,151.4 189.1,148.4 L189.5,145.6 L190.8,148.6 C191.5,150.3 191.8,152.8 191.5,154.3 C191.1,156.1 191.4,157 192.1,156.8 C192.8,156.7 193.5,157.5 193.7,158.6 C194.2,161.2 197.3,168.1 201,175.2 C203.3,179.8 203.9,182.1 203.9,187.2 C203.9,190.7 203.3,195.2 202.6,197.1 C201.1,201.5 195.4,208.7 191.1,211.6 C189.3,212.8 184.3,217.2 180,221.3 C175.7,225.4 171.2,229.5 169.9,230.4 C168.6,231.3 167.8,232.4 168.2,232.7 C169.1,233.7 175.7,230.1 177.8,227.5 C178.7,226.4 180.1,225.1 181,224.5 C183,223.4 195.4,212.6 198.6,209.2 C199.9,207.9 200.9,206.3 200.9,205.7 C201,204.2 205.5,199.1 206.9,199.1 C207.4,199.1 207.9,198.7 207.9,198.1 C207.9,197.1 213,192.1 214.1,192.1 C214.8,192.1 221,186.1 224,182.5 C228.1,177.5 241.1,166.2 243.1,165.9 C244.2,165.7 245.7,164.8 246.3,163.9 C247.1,162.5 246.8,161.6 244.6,159.3 C243.1,157.8 241.9,155.8 241.9,154.9 C241.9,154.1 240.8,152.2 239.4,150.7 C238,149.2 237.1,147.5 237.4,147 C238.1,145.9 241.6,145.8 242.3,146.9 C242.9,147.9 256.5,147.7 260.2,146.7 C262.4,146 263.2,145 264.1,141.5 C265.2,137.7 265.7,137.1 268,137.1 C269.5,137.1 271.2,136.5 271.8,135.7 C273.4,133.8 280.5,130.1 282.5,130.1 C283.4,130.1 284.6,128.8 285.2,127.1 C286,125.1 287,124.1 288.5,124.1 C289.6,124.1 291.4,123.2 292.4,122.1 C293.4,121 295.9,119.6 298,119.1 C301.3,118.2 301.7,117.8 301.5,114.9 C301.4,111.7 301.5,111.7 305.2,112 C308.5,112.2 308.9,112 308.9,109.9 C309,105.6 313.6,102.2 315.4,105.1 C316.6,107.1 319.9,106.1 320.9,103.6 C321.4,102.2 322.5,100.8 323.3,100.5 C324.2,100.2 326,97.9 327.4,95.5 C329,92.9 331.3,90.5 333.2,89.7 C337.2,88 341.4,84 343.5,80 C344.5,78 345.5,77.1 346.5,77.5 C347.4,77.8 348.2,78.1 348.4,78.1 C348.5,78.1 351.4,81.7 354.8,86.1 C358.2,90.5 361.4,94.1 361.8,94.1 C362.2,94.1 363,93.6 363.6,93 C364.2,92.4 365.5,92.1 366.5,92.3 C368.3,92.6 368.3,92.8 366.2,94.5 C364.1,96.3 364.1,96.6 365.6,99.5 C367.3,102.7 371,106.2 372,105.5 C372.4,105.3 373,103.4 373.4,101.4 C373.8,99.3 374.9,97.1 376,96.3 C377,95.6 377.9,94.1 377.9,93.1 C377.9,91.1 381.4,88.1 383.8,88.1 C384.6,88.1 387,86.9 389,85.5 L392.7,83 L398.6,86 C407.6,90.5 411.2,90.9 415.3,87.7 C417.2,86.3 419.4,85.1 420.2,85.1 C424.2,85.1 426.6,76.7 423.4,74.1 C420.8,72 423.2,71 428.4,72 C431.6,72.6 435.1,72.5 438.5,71.8 C445,70.5 448.6,71.8 454.9,78.1 C458.2,81.2 459.8,83.8 460.3,86.3 C460.9,89.4 461.5,90.2 463.7,90.6 C469.6,91.8 471.4,92.7 472.4,94.9 C473,96.2 474.3,97.1 475.6,97.1 C476.8,97.1 478.9,98.2 480.3,99.6 C481.7,101 483.6,102.1 484.6,102.1 C485.6,102.1 487.3,102.8 488.3,103.6 C489.4,104.4 491.8,105.1 493.6,105.1 C495.4,105.1 499.8,106.2 503.5,107.6 C507.5,109.1 512.4,110.1 515.8,110.2 C518.9,110.2 523,110.8 524.9,111.5 C527.7,112.6 528.4,113.3 528.2,115.4 C528.1,117.4 528.7,118.2 531.1,119 C535.3,120.5 542.1,120.4 544.3,118.8 C547.8,116.2 543.6,110.4 528.1,96.5 C524.2,93.1 524.1,90.4 527.9,86.4 C529.8,84.3 530.1,84.3 534.9,85.7 C537.6,86.5 542.1,88.3 544.8,89.6 C552.2,93.4 552.9,93 550.9,86.2 C550.4,84.3 550.1,82.6 550.3,82.3 C550.5,82.1 552.1,82.7 553.8,83.5 C557.7,85.6 557.9,85.5 557.9,82.6 C557.9,78.8 559.1,79.5 563.5,85.7 C565.6,88.7 568,91.9 568.7,92.6 C569.3,93.3 569.9,94.6 569.9,95.4 C569.9,96.2 570.5,97.1 571.2,97.3 C573.5,98.2 574.9,97 574.9,94.1 C574.9,90.5 577.3,87.9 579.8,88.9 C580.9,89.3 583,91.2 584.6,93.2 C586.1,95.1 589.9,99.2 593,102.2 C600,109 602.7,116.2 601.2,124.1 C600.6,126.8 600.4,129.3 600.7,129.5 C600.9,129.8 604.7,127.8 609.1,125 C613.5,122.3 618,120.1 619.1,120.1 C622.3,120.1 626.2,125 627,130.1 C627.3,132.6 628.2,138 628.9,142.1 C630.8,153.8 629.6,165.8 624.4,187.1 C623.5,190.7 622.5,195.7 622.2,198.4 L621.6,203.1 L625.2,203.1 C627.2,203.1 629.1,202.6 629.4,202.1 C630.2,200.8 633.9,200.8 633.9,202.1 C633.9,202.7 633.2,203.1 632.4,203.1 C630.7,203.1 623.8,209.7 619.8,215.1 C618.4,217 616.4,221.1 615.4,224.1 C614.3,227.1 612.8,230.7 611.9,232.1 C609.5,235.9 606.9,242 606.9,243.7 C606.9,244.5 606,246.9 605,248.9 C596.8,264.8 595.3,270.5 598.1,275 C599,276.5 598.8,277.5 597.2,280.2 C595.3,283.3 595.2,285.1 595.3,299.7 C595.4,313.6 595.6,316.2 597.2,317.8 C598.1,318.9 598.6,320 598.3,320.4 C598,320.7 598.7,321.4 599.8,322.1 C602.3,323.4 602.7,329.2 600.4,331.1 C598.4,332.7 598.5,335.8 600.5,336.9 C601.4,337.4 602.5,339.6 602.9,341.7 C603.3,343.8 604,346.4 604.4,347.4 C604.8,348.4 604.7,349.1 604.1,349.1 C603.5,349.1 602.9,348.4 602.7,347.6 C602.5,346.6 601.9,346.4 601,347 C598.9,348.3 600.4,353.1 602.9,353.1 C604.8,353.1 604.9,353.8 604.9,364 C604.9,370.7 604.5,375.2 603.8,375.6 C603.1,376.1 602.9,373.7 603.1,368 C603.3,362.6 603,359.7 602.3,359.4 C600.7,358.8 600.1,363.1 600.7,371.3 C601.1,377.1 601.5,378.4 603.1,378.9 C604.7,379.3 604.9,380.2 604.6,385.1 C604.4,388.3 603.7,391.6 603,392.5 C602,393.7 601.9,394.7 602.6,396.4 C603.8,399 602.7,413.6 601.1,416.7 C599.3,420.2 597.7,425.6 596.8,430.6 C596.3,433.4 595.3,439 594.5,443.1 C591.8,456.9 590.9,462.5 589.3,475.6 C587.5,490.7 586.5,497.9 584.9,507.6 C584.2,511.5 583.5,516.4 583.4,518.6 C582.9,523.8 580.4,535.9 579.2,539.1 C578.6,540.5 577.8,544.3 577.4,547.6 C577,550.9 576.3,554.4 575.8,555.3 C574.9,557 573.3,562.4 569.4,577.6 C567,586.9 555.8,621.3 553.5,626.6 C551.2,631.6 546.1,645.4 545.1,649.1 C542.6,658.1 530,685.7 526.4,690.1 C525.7,690.9 524.2,693.4 523,695.6 C516.9,707.1 500,728.6 491,736.6 C489.1,738.2 485.3,741.6 482.5,744.1 C474.3,751.4 462.1,760.4 451.9,766.6 C442.1,772.6 423.3,782.1 421.2,782.1 C420.6,782.1 416.5,783.4 412.2,784.9 C398.5,789.9 396.9,790.3 386.6,790.7 C381.1,791 376.1,791.5 375.5,792 C374.9,792.4 369.8,793.1 364.2,793.5 C358.6,793.8 352.8,794.6 351.4,795.1 C350,795.7 344.7,796.1 339.8,796.1 C334.8,796.1 328.7,796.6 326.1,797.2 C323.5,797.7 319.4,798.7 316.9,799.3 C310.2,800.8 310,800.8 302.4,800.1 Z M197.7,732.3 C197.9,731.6 197.4,731.1 196.5,731.1 C195.6,731.1 194.9,731.8 194.9,732.7 C194.9,734.4 197.1,734.1 197.7,732.3 Z M118.9,711.6 C118.9,710.8 118.5,710.1 117.9,710.1 C117.4,710.1 116.9,710.8 116.9,711.6 C116.9,712.4 117.4,713.1 117.9,713.1 C118.5,713.1 118.9,712.4 118.9,711.6 Z M229.9,690.2 C229.9,689.8 231.5,687.3 233.4,684.9 C235.3,682.4 239.6,675.7 243.1,670 C246.5,664.3 249.7,659.2 250.2,658.6 C250.6,658.1 253.2,654.2 255.8,650.1 C258.5,646 263.8,637.9 267.5,632.1 C271.3,626.3 275.3,619.6 276.4,617.1 C277.5,614.6 279.2,611.5 280.2,610.1 C281.1,608.8 281.9,607.1 281.9,606.4 C281.9,605.7 282.4,605.1 282.9,605.1 C283.5,605.1 283.9,604.4 283.9,603.5 C283.9,602.3 283.1,602.7 280.9,604.8 C279.3,606.3 277.9,608.1 277.9,608.8 C277.9,609.5 277,610.5 275.9,611.1 C274.8,611.7 273.9,612.7 273.9,613.4 C273.9,614.1 272.6,616 271.1,617.6 C269.6,619.3 266.6,623.4 264.5,626.9 C262.5,630.3 260.5,633.1 260.1,633.1 C259.5,633.1 257.4,636.4 251,647.5 C249.7,649.7 246.7,654.1 244.3,657.3 C241.9,660.4 239.9,663.4 239.9,663.9 C239.9,664.4 238.6,666.6 237.1,668.7 C233.5,673.7 228.8,683.3 227.2,689.1 C225.6,695.2 225.6,695.4 227.9,693.1 C229,692 229.9,690.7 229.9,690.2 Z M246.6,684.4 C247.4,683.8 247.9,682.4 247.7,681.4 C247.4,680 247,680.4 245.6,683 C244.7,684.9 243.9,686.9 244,687.5 C244,688.1 244.3,687.9 244.6,687.1 C244.9,686.3 245.8,685.1 246.6,684.4 Z M257.9,664.9 C257.9,661.9 256.4,662.9 254.6,666.9 C252.1,672.5 252.5,674 255.4,670.1 C256.8,668.2 257.9,665.9 257.9,664.9 Z M140.9,594 C140.9,593.5 140.3,593.1 139.6,593.1 C137.8,593.1 134.7,586.8 134.3,582.4 C134.1,580.3 133.7,576 133.3,572.8 C132.9,568.4 133.1,566.5 134.3,564.6 C135.7,562.5 136.3,562.3 137.9,563.1 C139.4,563.9 140,563.7 140.9,562 C142.5,559.2 141.4,556.9 138.7,557.2 C137.4,557.3 135.6,557 134.6,556.6 C132,555.5 127.9,557.6 127.9,560.1 C127.9,561.2 127.4,562.1 126.8,562.1 C126.2,562.1 125.9,561.3 126.2,560.2 C126.4,559.1 125.7,557.1 124.3,555.5 C123,553.9 122,551.3 121.9,549.8 C121.9,546.1 118.9,541.5 117.8,543.3 C116.6,545.1 116.7,555.8 118,560.6 C118.6,562.8 119.4,566.7 119.9,569.2 C120.3,571.7 121.7,575.3 122.9,577.2 L125.1,580.6 L124.5,576.4 C124.2,574 124.3,572 124.9,571.6 C125.4,571.3 125.9,569.9 125.9,568.6 C125.9,565.4 127.7,564.4 128.3,567.3 C129.9,575.3 131.9,587 132.1,589.1 C132.3,590.5 133.4,592 134.7,592.7 C136,593.3 137.6,594.4 138.1,594.9 C139.3,596.1 140.9,595.6 140.9,594 Z M59.9,582.4 C59.9,581.5 58.7,579.4 57.2,577.9 C55.3,575.9 54.3,573.5 53.8,569.8 C53.4,567 52.7,562.5 52.3,559.9 C51.5,554.2 52.8,552.1 57.1,552.1 C59.8,552.1 60,551.9 59.7,548.9 L59.4,545.6 L52.1,545.6 C45.9,545.6 44.5,545.3 43.3,543.6 C42.5,542.5 41.9,540.7 42,539.6 C42.1,538.5 41.7,536.5 41.1,535.1 C40.5,533.7 39.8,531.8 39.5,530.9 C38.7,528.2 36.2,528.7 34.6,531.9 C33.1,534.9 33.4,546.7 35,547.7 C35.5,548 35.9,550.5 35.9,553.2 C35.9,556 36.5,559.2 37.1,560.4 C38.6,563 40.9,571.1 41.6,576.3 C42.3,581.7 45.8,583.5 56.2,584 C59.1,584.1 59.9,583.7 59.9,582.4 Z M40.1,514.8 C41.7,513.2 42.3,511.6 42.1,509.4 C41.9,507.6 42.5,504.9 43.3,503.2 C45.5,499 45.4,496.1 43,496.1 C40.9,496.1 38.9,500.5 38.9,505 C38.9,506.5 38.5,508.1 38,508.7 C36.7,510 36.2,517.1 37.4,517.1 C37.6,517.1 38.8,516.1 40.1,514.8 Z M266.9,444.4 C266.9,443.4 264.9,440.4 264.9,441.3 C264.9,441.6 264.6,442.6 264.3,443.5 C263.9,444.6 264.2,445.1 265.3,445.1 C266.2,445.1 266.9,444.8 266.9,444.4 Z M253.9,387.6 C253.9,386.8 253.5,386.1 252.9,386.1 C252.4,386.1 251.9,386.8 251.9,387.6 C251.9,388.4 252.4,389.1 252.9,389.1 C253.5,389.1 253.9,388.4 253.9,387.6 Z M202.9,310.2 C202.9,309 200,307.9 198.8,308.7 C198.3,309 198.1,309.7 198.4,310.2 C199.2,311.4 202.9,311.4 202.9,310.2 Z M150.3,245.5 C150.7,244.6 150.5,243.3 150,242.7 C149.2,241.8 146.9,219.3 146.9,212.6 C146.9,210.2 136.9,197 135.7,197.7 C134.5,198.5 134.8,202.7 136.3,206.8 C137,208.9 138.3,213.1 139.2,216.1 C140.1,219.1 141.7,224.5 142.9,228 C144,231.6 144.9,235.4 144.9,236.5 C144.9,237.7 145.6,239.5 146.4,240.5 C147.2,241.6 147.9,243.5 147.9,244.8 C147.9,247.5 149.4,247.9 150.3,245.5 Z M133.9,159.7 C133.9,158.2 132.1,156.6 131.3,157.4 C130.6,158.1 132,161.1 133,161.1 C133.5,161.1 133.9,160.5 133.9,159.7 Z M153,112.8 C150.1,109.8 149.1,111.6 152,114.7 C153.4,116.2 154.5,116.7 154.7,116.1 C155,115.4 154.2,114 153,112.8 Z M26.7,101.9 C26.4,101.2 25.2,100.5 23.8,100.3 C21.5,100.1 21.5,100.1 23.3,101.6 C25.7,103.4 27.2,103.6 26.7,101.9 Z M124,91.6 C124,91 123,90.4 121.7,90.3 C119.8,89.9 119.7,90.1 120.8,91.5 C122.3,93.2 124.1,93.3 124,91.6 Z" id="Shape"></path>
                <path d="M47.7,577.2 C45.6,572.7 44.4,563.5 45.4,558.4 L46.1,554.6 L47.5,558.6 C49.8,565.2 51,573.6 50.2,577.3 L49.4,580.8 L47.7,577.2 Z" id="Shape"></path>
                <path d="M39.7,558.6 C39.9,557.2 40.3,556.1 40.5,556.1 C40.7,556.1 40.9,557.2 40.9,558.6 C40.9,560 40.5,561.1 40,561.1 C39.6,561.1 39.4,560 39.7,558.6 Z" id="Shape"></path>
                <path d="M62.4,458.9 C61.3,458.3 58.7,456.2 56.7,454.3 L53,450.8 L55.5,446.2 C57.7,442 67.2,434.1 69.9,434.1 C70.4,434.1 71.3,433.2 71.9,432.1 C72.5,431 73.7,430.1 74.7,430.1 C75.6,430.1 77.7,428.7 79.3,427.1 C80.9,425.4 82.9,424.1 83.8,424.3 C84.7,424.4 86.9,424 88.6,423.2 C90.4,422.5 93.1,422.1 94.6,422.4 C96.2,422.7 99.9,423.5 102.9,424 C108.3,425 120.6,430.8 124.3,434 C127.4,436.7 128,439.7 126.7,446.7 C125.5,453 123.6,455 122.4,451.2 C121.2,447.3 118.7,446.1 113.9,447.2 C111.4,447.8 108.5,448.6 107.4,449 C103.1,450.7 98.1,452.4 91.9,454.3 C88.3,455.4 84.5,457.2 83.3,458.2 C81.6,459.8 79.8,460.1 72.8,460.1 C68.2,460.1 63.5,459.5 62.4,458.9 Z" id="Shape"></path>
                <path d="M72,424.6 C72.1,420.6 72.1,420.6 73.1,423.4 C73.8,425.5 73.8,426.6 73,427.4 C72.2,428.2 71.9,427.4 72,424.6 Z" id="Shape"></path>
                <path d="M170.1,392.9 C168.2,391 168.7,389.4 171.8,387.2 C173.9,385.7 174.6,384.5 174.2,383.1 C173.8,381.6 174.2,381.1 175.8,381.1 C178.3,381.1 179.6,383.5 178.1,385.4 C177.5,386 176.9,388.2 176.7,390.1 C176.5,393 176,393.7 173.9,393.9 C172.5,394.1 170.8,393.6 170.1,392.9 Z" id="Shape"></path>
                <path d="M90.9,390.5 C90.2,389.8 88.8,389.1 87.8,389.1 C86.8,389.1 85.2,388.3 84.2,387.2 C83.2,386.2 81.4,385 80.2,384.7 C77.8,383.9 77,381.2 79.2,381 C79.8,380.9 90.1,380.5 101.9,380.1 C128.4,379.1 131.3,378.6 131.7,374.8 C132,372.2 132.3,372 135,372.6 C138.9,373.5 148.1,373.5 162.1,372.6 C170.1,372.1 173.9,372.2 174.3,373 C175.2,374.4 173.2,378.1 171.5,378.1 C169.4,378.1 166.1,382.4 165.7,385.6 C165.4,388.6 165.4,388.6 159.7,388.3 C155.2,388.1 153.9,388.4 153.9,389.5 C153.9,391.9 152.2,392.3 149.1,390.7 C147.5,389.9 143.9,389.2 141.1,389.3 C138.3,389.3 135.6,389 135.1,388.7 C134.6,388.4 127,388.8 118.3,389.5 C109.5,390.2 101.7,390.9 100.9,390.9 C100.1,390.9 97.7,391.1 95.7,391.4 C93.2,391.8 91.7,391.5 90.9,390.5 Z" id="Shape"></path>
                <path d="M114.9,371.1 C110.4,369.7 99.5,367 93.6,365.9 C90.4,365.3 88,364.4 88.2,363.8 C88.3,363.3 90.5,362.1 92.9,361.2 C97.1,359.6 97.7,359.6 102.9,361.3 C114.2,365 124.5,370.1 122.7,371.2 C121.1,372.2 118.3,372.2 114.9,371.1 Z" id="Shape"></path>
                <path d="M102.9,348.2 C102.9,346.2 105.3,343.1 106.9,343.1 C107.6,343.1 110.9,348.6 110.9,349.8 C110.9,349.9 109.1,350.1 106.9,350.1 C103.6,350.1 102.9,349.8 102.9,348.2 Z" id="Shape"></path>
            </g>
        </g>
    </g>
</svg>
