
<svg width="59px" height="59px" viewBox="0 0 59 59" version="1.1" xmlns="http://www.w3.org/2000/svg" xmlns:xlink="http://www.w3.org/1999/xlink">
    <!-- Generator: Sketch 49.2 (51160) - http://www.bohemiancoding.com/sketch -->
    <desc>Created with Sketch.</desc>
    <defs></defs>
    <g id="Page-1" stroke="none" stroke-width="1" fill="none" fill-rule="evenodd">
        <g id="Evil-Icons" transform="translate(-128.000000, -278.000000)" fill="#fff">
            <g id="Icon-Play" transform="translate(128.000000, 278.000000)">
                <path d="M29.5,58.8785294 C13.3010294,58.8785294 0.121470588,45.6989706 0.121470588,29.5 C0.121470588,13.3010294 13.3010294,0.121470588 29.5,0.121470588 C45.6989706,0.121470588 58.8785294,13.3010294 58.8785294,29.5 C58.8785294,45.6989706 45.6989706,58.8785294 29.5,58.8785294 L29.5,58.8785294 Z M29.5,3.34911765 C15.0797059,3.34911765 3.34911765,15.0797059 3.34911765,29.5 C3.34911765,43.9202941 15.0797059,55.6508824 29.5,55.6508824 C43.9202941,55.6508824 55.6508824,43.9202941 55.6508824,29.5 C55.6508824,15.0797059 43.9202941,3.34911765 29.5,3.34911765 L29.5,3.34911765 Z" id="Fill-124"></path>
                <path d="M20.8235294,44.6682059 L20.8235294,14.3317941 L46.8269118,29.5 L20.8235294,44.6682059 L20.8235294,44.6682059 Z M24.2941176,20.3740882 L24.2941176,38.6259118 L39.9377941,29.5 L24.2941176,20.3740882 L24.2941176,20.3740882 Z" id="Fill-125"></path>
            </g>
        </g>
    </g>
</svg>
